<svg id="a0da3310-712c-4999-8315-9afea06a3423" data-name="Capa 1" xmlns="http://www.w3.org/2000/svg" viewBox="0 0 69.25 63.29"><title>decor8</title><path d="M68.76,51.7c-1.16-2.72-3.2-4.94-4.69-7.45a54.93,54.93,0,0,1-2.74-5.44,0.27,0.27,0,0,0-.13-0.3c-0.46-1-.92-2.06-1.4-3.08A4.42,4.42,0,0,0,61,33.14c0.93-3.57,0-8.73,0-12.46-0.07-4.43,0-8.85,0-13.28,0-1.7.56-4.74-.78-6.24-1.48-1.67-4.88-1-6.69-1.06C49,0,44.49,0,40,0c-8.92.15-18.18,0.23-27,1.4-5.53.73-5.29,3.69-5.22,8.84A157.4,157.4,0,0,0,9.79,35.58,103.78,103.78,0,0,0,2.06,52a12.85,12.85,0,0,0-.83,2.8,0.62,0.62,0,0,0-1,.37,12.79,12.79,0,0,0-.13,3.86c0.13,1.06.19,2.48,1.07,3.18a0.79,0.79,0,0,0,.44.17,0.37,0.37,0,0,0,.3.25C8.3,63.52,15,63.05,21.48,63c7.46,0,14.92-.09,22.38-0.12,6.81,0,14.52,1,21.22-.17,4.76-.8,3.51-3.89,4.08-7.78a0.79,0.79,0,0,0,0-.37A4.11,4.11,0,0,0,68.76,51.7Zm-4.7-5.1-0.49.06A15,15,0,0,0,62,46.9a0.25,0.25,0,0,0,.06.48,15.36,15.36,0,0,0,1.62-.11l0.65-.06c0.26,0.6.53,1.19,0.79,1.81,0.07,0.17.16,0.35,0.25,0.53-0.68.08-1.36,0.23-2,.35-0.26,0-.2.5,0.06,0.46,0.73-.1,1.48-0.16,2.21-0.31a4.88,4.88,0,0,1,.7,2.49,10.69,10.69,0,0,1-3.37.16,0.63,0.63,0,0,0,0-.36A0.39,0.39,0,0,0,63,52a36.38,36.38,0,0,0-3.13-7.79c1,0.05,2.12.12,3.17,0.09C63.36,45.07,63.71,45.83,64.05,46.6ZM41.6,49.26l2.93-.05c0.24,0.88.51,1.76,0.84,2.61L41.91,52A0.68,0.68,0,0,0,42,51.57C41.85,50.81,41.73,50,41.6,49.26Zm-3.82.07,2.28,0c0.21,0.88.43,1.76,0.63,2.64a0.69,0.69,0,0,0,.06.13l-3,.15a0.61,0.61,0,0,0,0-.13C37.8,51.17,37.8,50.25,37.78,49.33Zm0-5,1.17,0c0.18,0.94.39,1.88,0.6,2.82l-1.81,0c0-.29,0-0.58,0-0.87C37.74,45.69,37.77,45,37.79,44.38Zm0-1.81a8.06,8.06,0,0,0-.15-1l0.91,0c0,0.32.09,0.64,0.14,1Zm2.35-1.06,2.52-.09c0,0.31.1,0.61,0.16,0.91l-2.44.12C40.25,42.14,40.17,41.83,40.09,41.51Zm0.65,2.81,2.5,0c0.15,0.54.3,1.08,0.44,1.61s0.21,0.82.31,1.23l-2.73,0Q41,45.73,40.74,44.32Zm3.64-3,3.22-.14c0,0.31.06,0.62,0.11,0.94l-3.06.11C44.56,42,44.48,41.65,44.38,41.35Zm0.77,2.88,3-.09a24.89,24.89,0,0,0,.9,2.92l-3.18,0-0.31-1.25C45.39,45.31,45.27,44.77,45.15,44.23Zm4.73,4.84a17.75,17.75,0,0,0,1.48,2.49c-1.52,0-3,.1-4.57.18-0.11-.87-0.27-1.73-0.46-2.58Zm-0.53-7.95L52,41q0.18,0.56.36,1.11c-0.9,0-1.81,0-2.72,0C49.52,41.8,49.44,41.46,49.36,41.13ZM51,47.05c-0.12-.32-0.25-0.65-0.36-1-0.22-.67-0.4-1.35-0.57-2,1-.05,1.92-0.09,2.88-0.17q0.58,1.59,1.23,3.16Zm3-6.17,1.57-.09,0.91,1.47c-0.65,0-1.31-.06-2-0.09C54.32,41.73,54.13,41.31,54,40.88Zm1,8c0.38,0.88.78,1.75,1.18,2.62-1.13,0-2.26,0-3.4,0a0.64,0.64,0,0,0,0-.15c-0.28-.8-0.61-1.59-0.94-2.37ZM55,43.68c0.71-.08,1.43-0.15,2.13-0.25Q58.26,45.2,59.3,47l-3.14,0Q55.63,45.33,55,43.68Zm4.36,5.09a0.83,0.83,0,0,0,.7-0.4c0.64,1.14,1.26,2.3,1.85,3.48-1.46-.15-2.94-0.23-4.43-0.28-0.25-.9-0.5-1.81-0.76-2.71ZM9.78,16.18C9.67,13.44,9,10,9.61,7.35,10.71,2.45,15.8,3.19,19.69,3,25.8,2.69,31.92,2.54,38,2.47c3.22,0,6.44-.08,9.67-0.08,2,0,7.9-.93,9.67.12a2.59,2.59,0,0,1,1.08,1.33c-4.23-.21-8.5-0.06-12.73,0a0.24,0.24,0,0,0,0,.48c4.28,0.05,8.61.21,12.89,0a9.18,9.18,0,0,1,.22,2.54,0.29,0.29,0,0,0-.11-0.05,13.41,13.41,0,0,0-2.65,0,0.89,0.89,0,0,0-.72-0.63,1.09,1.09,0,0,0-1-.55c-6.65-.09-13.29-0.07-19.94.13-3.16.09-6.33,0.21-9.49,0.39-2.87.16-7.8-.36-10.43,0.84C12.17,8,12.63,9.58,12.45,12.38a76.91,76.91,0,0,0,1.16,18.16,0.53,0.53,0,0,0,.15.28,0.46,0.46,0,0,0,.29.79,132.53,132.53,0,0,0,40.38-2.55,0.93,0.93,0,0,0,.74.14,0.31,0.31,0,0,0,.22.47,5.49,5.49,0,0,0,3.13-.38c0.28-.13.07-0.52-0.2-0.47a10.39,10.39,0,0,1-2.89.28,0.82,0.82,0,0,0,.41-0.7s0-.09,0-0.14a1.08,1.08,0,0,0,0-.47c0-.49,0-1,0-1.46a14.43,14.43,0,0,1,2.1-.28c0.28,0,.55,0,0.83,0q0,1.57,0,3.15a13.71,13.71,0,0,1-.06,3A149.67,149.67,0,0,0,43.69,34a0.19,0.19,0,0,0,0,.37,147.74,147.74,0,0,0,14.8-1.51,4.85,4.85,0,0,1-2.41,2,15.08,15.08,0,0,1-3.73.67,119.82,119.82,0,0,1-41.19-.68H11.1C10.64,28.63,10,22.43,9.78,16.18ZM58.4,9.89c-0.8,0-1.54.19-2.31,0.24,0-.92,0-1.84,0-2.76a13.25,13.25,0,0,0,2.6,0,0.28,0.28,0,0,0,.09,0c0,1.07-.15,2.12-0.13,2.93,0,1.31,0,2.63.06,3.94h0c-0.62,0-1.21.2-1.82,0.26a8.45,8.45,0,0,1-.86,0c0-1.23,0-2.46,0-3.69a4,4,0,0,0,2.44-.44A0.24,0.24,0,0,0,58.4,9.89Zm0.34,4.83c0,1.07,0,2.14,0,3.22A6.52,6.52,0,0,1,56,17.87c0-.92,0-1.83,0-2.75A5.51,5.51,0,0,0,58.75,14.72Zm0.05,4c0,0.34,0,.68,0,1,0,0.53,0,1.07,0,1.6a9.53,9.53,0,0,1-2.82.43c0-1.11,0-2.21,0-3.32A5.61,5.61,0,0,0,58.8,18.71Zm0,3.36c0,1.07,0,2.15,0,3.22a8.56,8.56,0,0,0-2.91.4c0-1.1,0-2.2.06-3.3A6.74,6.74,0,0,0,58.81,22.07Zm-4.73,5.11c-6.51.69-13,1.83-19.49,2.34s-13.14.69-19.7,1.13a0.53,0.53,0,0,0,0-.29A117.93,117.93,0,0,1,14,16c0-2.83-.83-6.08,2.43-7.52C18.25,7.66,22,8.24,24,8.17c10-.38,20.08-0.5,30.13-0.19C54.12,14.38,54,20.78,54.08,27.19ZM4.58,51.38C5.33,49.69,6.11,48,6.86,46.31a94.86,94.86,0,0,0,4.25-10.17A139.14,139.14,0,0,0,35.6,38.55c4.43,0,8.86-.3,13.27-0.76,2.85-.3,6.61-0.28,9.29-1.38,0.24-.1.46-0.2,0.66-0.31q0.63,1.15,1.22,2.28a8.24,8.24,0,0,0-2.39.45,0.23,0.23,0,0,0,.12.44,8.75,8.75,0,0,1,2.6-.25l0.91,1.78c-0.32,0-.63,0-1,0a9.13,9.13,0,0,1-1.89-.3,0.24,0.24,0,0,0-.13.47,8,8,0,0,0,3.27.42c0.4,0.8.8,1.59,1.19,2.4-1,0-2,.06-3.05.11h0a28.61,28.61,0,0,0-3-4.42,0.64,0.64,0,0,0-.11-0.13c-0.17-.2-0.33-0.41-0.51-0.61a0.76,0.76,0,0,0-1.28.41H53.25a0.88,0.88,0,0,0-1.49,0c-13.08,0-26.33.42-39.33,1.37a0.69,0.69,0,0,0-1.28-.15A92.46,92.46,0,0,0,6.92,50.77c-0.2.61-.73,2.14-0.33,2.82a0.6,0.6,0,0,0,.47,1c9.55,0.05,19.11-.28,28.65-0.51,8.74-.2,18.2.43,26.83-1A0.56,0.56,0,0,0,62.73,53a9.85,9.85,0,0,0,3.45.1,3.15,3.15,0,0,1-1.36,1.52c-0.78.5-4.92,0.26-5.87,0.31-8.48.5-17,.73-25.44,1.08l-11.74.51c-4.16.18-9.6,1.24-13.7,0.53l-2,.05Q1.71,54.8,4.58,51.38Zm31.56-4.15-3.59.05c0-.91.08-1.83,0.08-2.75L35,44.44l1.06,0A22.65,22.65,0,0,0,36.14,47.23ZM34,42.72l-1.5,0c0-.35-0.07-0.69-0.12-1l4.13-.1a9.15,9.15,0,0,0-.26,1Zm-1.6,6.69v0l3.89,0c0.12,1,.24,1.89.35,2.73a0.59,0.59,0,0,0,.06.18l-2,.09-3.34.1C32.52,51.86,32.42,50.67,32.45,49.41Zm-1.72,3.06-4.15.13v0Q26.85,51,27,49.43l4.18,0c0.05,1.07,0,2-.38,2.28A0.52,0.52,0,0,0,30.74,52.47Zm0.18-9.66L27,42.92c0-.36-0.08-0.73-0.13-1.09L31,41.76C31,42.11,30.93,42.46,30.91,42.81ZM31,47.32l-3.86.08q0.05-1.33,0-2.66l3.74-.14c0,0.58,0,1.16,0,1.74C30.92,46.55,31,46.9,31,47.32Zm-5.62,5.32-3.47.1c0-1.09.14-2.19,0.24-3.29h3.41c0,1-.1,2-0.2,3A0.51,0.51,0,0,0,25.37,52.63ZM22.32,47.5c0.08-.87.16-1.73,0.22-2.6l3-.11q0,1.32,0,2.64ZM22.64,43c0-.38,0-0.77,0-1.15l2.83,0c0,0.37,0,.74,0,1.11Zm-1.89,4.49-3.42.08c0.08-.86.13-1.72,0.17-2.58L20.9,45C20.81,45.81,20.77,46.67,20.74,47.54Zm0.09,5.23-4.13.13c0.16-1.15.3-2.32,0.43-3.5l3.59,0c0,1.13,0,2.24.09,3.3A0.13,0.13,0,0,0,20.83,52.77Zm-3.29-9.54c0-.44,0-0.89,0-1.33h3.82q-0.14.59-.24,1.2Zm-6.29,9.9-3.43.16-0.05-.07A31.25,31.25,0,0,1,9,49.14a0.68,0.68,0,0,0,.4.14l2.11,0c-0.12,1.26-.23,2.51-0.25,3.76C11.25,53.11,11.26,53.12,11.26,53.13ZM9.48,47.89c0.37-.95.77-1.89,1.17-2.82h1.27c0,0.35,0,.69-0.09,1-0.06.56-.12,1.13-0.18,1.7Zm1.85-4.33,0.77-1.71h0.64a4.43,4.43,0,0,0-.63,1.64Zm1.78,5.8,2.47,0c-0.09,1.2-.16,2.39-0.21,3.57l-2.88.11C12.75,51.85,12.94,50.61,13.11,49.36Zm0.21-1.6c0.06-.47.12-0.94,0.19-1.41s0.13-.83.2-1.25l2.31,0c-0.11.87-.21,1.74-0.3,2.62Zm0.55-4.34a4.07,4.07,0,0,0-.28-1.53l2.91,0c-0.08.46-.15,0.93-0.23,1.4Zm52.39,15.1c-3.73.17-7.5,0.53-11.21,0.84a0.08,0.08,0,0,0,0,.17,53.27,53.27,0,0,0,10.7-.27,4.69,4.69,0,0,1-2.44,1.58c-2.42.7-6.19,0.06-8.76,0.07-6.16,0-12.32.13-18.48,0.12-11,0-22.78-.89-33.71.64A8,8,0,0,0,2,59.05c-0.1-.56-0.16-1.12-0.22-1.68a3.34,3.34,0,0,0,.46.53c2.59,2.43,8.65.79,11.74,0.69,6.52-.22,13-0.42,19.57-0.65,6.2-.22,12.4-0.63,18.59-0.78,3.26-.08,6.52-0.1,9.78-0.19,1.65,0,3.68.17,5.27-.51A12.62,12.62,0,0,1,66.27,58.51Z"/></svg>