<svg id="1f01935c-f1b8-4545-9175-6ad493c3a137" data-name="Слой 1" xmlns="http://www.w3.org/2000/svg" viewBox="0 0 69.99 71.98"><title>decor14</title><path d="M14.68,38.17a0.51,0.51,0,0,0,.4.37,0.43,0.43,0,0,0,.18.45l0.2,0.14c-1.7,2.72-5,6.08-4,9.65,1.12,4.08,7.37,6.09,10.6,8,2.71,1.58,5.39,3.22,8.14,4.73,1.08,0.59,2.31,1.51,3.64,1.23,3.15-.66,5.06-6.88,6.39-9.25a0.84,0.84,0,0,0,.08-0.66,0.75,0.75,0,0,0,1-.24C46.55,45.21,31,40,26.74,37.72,24.66,36.61,12.65,30.12,14.68,38.17Zm24,14.4c-1.34,2.29-2.85,6.81-5.42,7.56S26.07,57,23.88,55.69,17.44,53,15.74,51c-2.32-2.7-2.5-5.12-1.16-8s0.52-.59,1.56-3.33A134.93,134.93,0,0,0,38.81,52.43l-0.11.13h0Zm1.38-.91A224.06,224.06,0,0,1,15.71,38.29a0.46,0.46,0,0,0,.06-0.3c-0.56-5.27,8.29,0,9.28.58L29.61,41c2.89,1.61,13,5.58,10.47,10.6h0Zm13-42.33a6.89,6.89,0,0,0-3.48-4.19,5.64,5.64,0,0,0-1-.33C47,1.27,42-.51,38.43.13a10.39,10.39,0,0,0-8.3,9.57,21.83,21.83,0,0,0-7.59,3C11.93,19.63,8.4,33,1.81,43.11a0.49,0.49,0,0,0-.08.19c-7.57,8.23,11.93,16,16.61,18.61,3.19,1.75,24,16.69,24.91,6.61a0.52,0.52,0,0,0,.36-0.31,135.88,135.88,0,0,1,6.91-12.87C59.18,52.12,62,37.5,62.9,29.58c0.5-4.24.69-9.42-2.67-12.63a6.78,6.78,0,0,0-7.55-1.57,7.37,7.37,0,0,0,.67-5c7.34-.78,11.46,3.4,13.36,9.07-1-.42-2.06-0.79-3.09-1.17-0.15,0-.2.18-0.06,0.23,1.08,0.44,2.16.92,3.27,1.3A24.3,24.3,0,0,1,67.6,23c-0.92-.46-1.86-0.9-2.79-1.35a0.19,0.19,0,0,0-.19.34c1,0.51,2,1,3.07,1.53,0.12,0.81.22,1.63,0.27,2.46-1.05-.54-2.17-1-3.25-1.49-0.14-.06-0.27.14-0.12,0.22,1.12,0.57,2.24,1.19,3.4,1.69a23.1,23.1,0,0,1,0,3c-1-.54-2.1-1-3.17-1.47-0.14-.06-0.23.17-0.1,0.24A35.89,35.89,0,0,0,68,29.73a21.22,21.22,0,0,1-.2,2.54c-1.08-.57-2.17-1.09-3.22-1.72a0.18,0.18,0,0,0-.18.31,22.07,22.07,0,0,0,3.35,1.86,32.3,32.3,0,0,1-.57,3.19,5.89,5.89,0,0,0-3.59-1.28,0.16,0.16,0,0,0,0,.32,8.7,8.7,0,0,1,3.53,1.36c-0.11.44-.22,0.87-0.35,1.29l-0.31,1c-0.87-.44-1.78-0.82-2.67-1.23-0.22-.1-0.42.22-0.19,0.34,0.9,0.46,1.79.94,2.71,1.36-0.22.66-.46,1.33-0.72,2-1-.54-2.09-1-3.11-1.43-0.22-.1-0.42.22-0.19,0.34,1,0.52,2,1.12,3.11,1.58a57.27,57.27,0,0,1-2.86,6.21,0.19,0.19,0,0,0-.11-0.09,9.28,9.28,0,0,1-2.58-1.29,0.18,0.18,0,1,0-.22.29A6.15,6.15,0,0,0,62.32,48h0.06c-0.4.74-.82,1.48-1.27,2.21a20.6,20.6,0,0,0-2.71-.89,0.16,0.16,0,0,0-.08.32,22,22,0,0,0,2.59.92c-0.44.7-.88,1.39-1.36,2a24.34,24.34,0,0,0-3-1.13c-0.19-.06-0.33.26-0.14,0.34A25.68,25.68,0,0,0,59.32,53c-0.47.65-1,1.29-1.46,1.9-0.7-.45-1.44-0.84-2.16-1.25a0.11,0.11,0,1,0-.11.2c0.7,0.42,1.39.86,2.11,1.24-0.56.67-1.15,1.32-1.75,1.92a15.27,15.27,0,0,1-2.58-1.41c-0.17-.12-0.32.16-0.16,0.27a12.49,12.49,0,0,0,2.45,1.42c-0.55.53-1.11,1-1.69,1.51-1-.43-2-0.83-3-1.23a0.19,0.19,0,0,0-.14.35l2.81,1.16a19.51,19.51,0,0,1-1.93,1.33,17.62,17.62,0,0,1-2.28-1.55c-0.2-.17-0.49.11-0.29,0.29a15.51,15.51,0,0,0,2.06,1.55,14.67,14.67,0,0,1-4,1.54,0.81,0.81,0,0,0,.21,1.58C53.73,63.21,57.82,58,61.26,53c4.26-6.19,7.6-13.2,8.55-20.74C71.07,22.25,66,5.83,53.07,9.32h0Zm-4.81-3h0a0.4,0.4,0,0,0,.47.07,4.44,4.44,0,0,1,.71.27,4.81,4.81,0,0,1,2.64,3.18,0.51,0.51,0,0,0,.09.4,10.58,10.58,0,0,1-.36,4.7A21.16,21.16,0,0,0,50,13.65c1-1.66,1-4.13-.5-5.33s-4.39-.7-4.62,1.53c-0.06.59,0.85,0.66,1,.13,0.42-1.49,2.68-1.12,3.25.05a3.33,3.33,0,0,1-.23,2.91l-0.32-.2a29.29,29.29,0,0,0-6.27-2.55,5.31,5.31,0,0,1,5.91-3.91V6.33Zm-9.11-4.5a9,9,0,0,1,1.11-.06,0.14,0.14,0,0,0,0,.19l0,0C42,2.84,43.79,3.75,45.61,4.49c0.21,0.09.35-.27,0.15-0.37-1.68-.85-3.43-1.57-5.16-2.32a9.42,9.42,0,0,1,5.92,2.9,6.29,6.29,0,0,0-2,.56c-1.61-.92-3.33-1.71-5-2.5a0.14,0.14,0,1,0-.14.25h0c1.53,0.86,3.08,1.75,4.67,2.5a6.38,6.38,0,0,0-1.47,1.11c-1-1.05-3-1-4.17-.46a4.21,4.21,0,0,0-2.64,3.1,25.3,25.3,0,0,0-4.14.19,8.89,8.89,0,0,1,7.52-7.67V1.83Zm2.57,6a5.28,5.28,0,0,0-.64,2.1,27.76,27.76,0,0,0-4-.59,3.14,3.14,0,0,1,2-1.77,3.53,3.53,0,0,1,1.57-.16,3.43,3.43,0,0,1,1.08.37V7.83ZM52.83,46.3q-1.3-.67-2.64-1.31c0.5-.86,1-1.74,1.51-2.61Q53,43,54.31,43.53c-0.83,2-1.77,4-2.75,5.93q-1.56-.71-3.12-1.37c0.43-.8.89-1.6,1.36-2.41,1,0.38,1.94.71,2.89,1A0.2,0.2,0,1,0,52.83,46.3Zm3.24-8.85-1.59-.67a24.61,24.61,0,0,0,.83-2.4c0.58,0.22,1.16.41,1.75,0.58a41.35,41.35,0,0,1-1.49,5.25l-2.24-.89q0.5-1,.93-2c0.55,0.2,1.09.38,1.65,0.54C56.14,37.9,56.29,37.54,56.07,37.45ZM56,31a14.46,14.46,0,0,0,0-3l1.69,0.73A22.35,22.35,0,0,1,57.52,32C57,31.63,56.49,31.32,56,31Zm1.48,1.62c-0.08.6-.16,1.2-0.28,1.81l-1.67-.73a18,18,0,0,0,.38-1.94Zm-1.61-5.24a13.53,13.53,0,0,0-.42-1.84c-0.09-.28-0.2-0.54-0.3-0.8l2.1,0.92a17.65,17.65,0,0,1,.38,2.58c-0.63-.24-1.21-0.55-1.8-0.82Zm-1-3.38a15,15,0,0,0-3-4.4c1.22,0.51,2.42,1.07,3.63,1.65a15.49,15.49,0,0,1,1.58,3.87L54.83,24h0Zm0.57,16.6c-0.3.84-.62,1.69-1,2.53q-1.22-.66-2.48-1.27c0.36-.65.72-1.31,1.06-2A22.3,22.3,0,0,0,55.44,40.59Zm6-13.56a47.87,47.87,0,0,1-1.8,10.27c-1.48,5.44-3.39,10.54-7.14,14.47,3-5.32,5.5-10.78,6.25-16.87A24.13,24.13,0,0,0,57,21.67a0.18,0.18,0,0,0,0-.09,18.86,18.86,0,0,0-3.45-5.08c6.32-2,8.12,6.2,7.93,10.49ZM54.91,20.4a32.38,32.38,0,0,0-4-1.65c-3.93-3.54-9.49-5.43-14.53-6.51a0.44,0.44,0,1,0-.22.86c5.84,2,13.15,4.58,16.49,10-1.39-.54-2.79-1-4.17-1.49-0.2-.07-0.28.25-0.08,0.32,1.6,0.57,3.15,1.23,4.69,1.92a12,12,0,0,1,1,2.8c-1.81-.77-3.64-1.47-5.47-2.13-0.21-.08-0.29.26-0.09,0.34,1.92,0.78,3.81,1.62,5.7,2.45a11.45,11.45,0,0,1,.19,2.91C52.76,29.39,51,28.67,49.36,28a0.23,0.23,0,0,0-.17.41A55.88,55.88,0,0,1,54.47,31a15.94,15.94,0,0,1-.36,2.13c-2.09-.88-4.17-1.76-6.2-2.81a0.19,0.19,0,0,0-.19.33h0a58,58,0,0,0,6.21,3.17,22,22,0,0,1-.82,2.37c-2.21-.92-4.4-1.86-6.54-3a0.13,0.13,0,0,0-.13.23h0a50.7,50.7,0,0,0,6.44,3.32q-0.43,1-.94,2a49.36,49.36,0,0,1-6.45-3.11,0.16,0.16,0,0,0-.16.27,41.12,41.12,0,0,0,6.3,3.43l-1,1.86c-2.11-1-4.24-1.91-6.34-2.87-0.18-.08-0.33.18-0.15,0.27,2.06,1,4.12,2.1,6.2,3.12-0.52.88-1,1.75-1.56,2.62-2.27-1-4.57-2-6.81-3a0.13,0.13,0,1,0-.13.23,47,47,0,0,0,6.51,3.52c-0.48.81-.94,1.61-1.37,2.41-2-.79-3.9-1.49-5.79-2.28a0.17,0.17,0,0,0-.12.31c1.84,0.84,3.69,1.72,5.56,2.56-0.31.6-.61,1.21-0.87,1.81-0.41.93,1,1.75,1.38,0.8,0.29-.65.63-1.3,1-2q1.58,0.69,3.17,1.31c-1,2.07-2.13,4.11-3.19,6.08A0.22,0.22,0,0,0,48,55.8a32.18,32.18,0,0,1-5.37-2.31,0.19,0.19,0,0,0-.19.33,16.05,16.05,0,0,0,5.45,2.4,0.21,0.21,0,0,0,.25-0.15L46.8,58.53H46.74a28,28,0,0,1-5.38-2.3,0.19,0.19,0,0,0-.19.34,13.11,13.11,0,0,0,5.46,2.33l-1.26,2.41a50.91,50.91,0,0,0-5.19-2,0.17,0.17,0,0,0-.13.32,50.63,50.63,0,0,0,5,2.16c-0.29.57-.57,1.14-0.84,1.69h0c-1.84-1-3.88-1.82-5.81-2.67-0.15-.07-0.29.16-0.13,0.23,1.91,0.94,3.82,2,5.81,2.76h0l-0.62,1.32a29.56,29.56,0,0,1-7.66-3,0.19,0.19,0,0,0-.19.33h0a23.57,23.57,0,0,0,7.64,3.14c-0.24.54-.46,1.07-0.67,1.59a0.83,0.83,0,0,0-1,.77,2.63,2.63,0,0,1,0,.34c-7.09-3.21-14.19-6.43-21.38-9.4-0.1,0-.17.13-0.07,0.17,7,3.42,14.14,6.61,21.26,9.78-1.74,3.28-12-3.05-13.3-3.76L19.3,60.23C15.47,58.14-3.13,50.56,3.22,43.58a0.61,0.61,0,0,0,0-.85c5.91-8.4,9.13-19,16.75-26C27.83,9.41,39.49,9,48.54,14.47a0.59,0.59,0,0,0,.3.19,19.64,19.64,0,0,1,6.11,5.74h0Zm-6,32.46A0.23,0.23,0,0,0,49,52.44c-1.77-.86-3.66-1.56-5.5-2.25a0.2,0.2,0,0,0-.15.37C45.16,51.38,47,52.22,48.86,52.86Zm-7.09-47C42,6,42,5.67,41.89,5.57A36.81,36.81,0,0,0,38.32,3.8a0.19,0.19,0,0,0-.19.34,37.24,37.24,0,0,0,3.63,1.75v0ZM64,43.92a29.4,29.4,0,0,1-2.87-1.41c-0.22-.15-0.42.2-0.21,0.36a6.32,6.32,0,0,0,3,1.39A0.19,0.19,0,0,0,64,43.92Zm0.9-27.78c-1.32-.72-2.72-1.32-4.07-2a0.16,0.16,0,0,0-.16.28c1.33,0.69,2.65,1.44,4,2A0.21,0.21,0,0,0,64.9,16.14Z"/></svg>