<svg xmlns="http://www.w3.org/2000/svg" viewBox="0 0 67.99 75"><title>decor12</title><g id="c5005e5a-b093-446b-a70d-572038ee4ed0" data-name="Forma 1" style="isolation:isolate"><g id="00a1b894-7471-4189-bdab-11b6c59edbde" data-name="Forma 1"><path d="M67.79,44.17a1,1,0,0,0-.54-0.76,1.37,1.37,0,0,0-.1-0.29,99,99,0,0,1-6.3-12.6c-1.35-3.39-2.14-7.06-3.92-10.25a0.38,0.38,0,0,0-.71.18,20.2,20.2,0,0,0,.2,3.83c-0.89.47-1.76,1-2.62,1.51L54,25.38A183.05,183.05,0,0,0,61.72,1.52,1.25,1.25,0,0,0,59.64.33,0.94,0.94,0,0,0,59,.1c-9.21.28-18.5,2-27.64,3-5.42.64-14,0-17.78,4.68S8.12,21,6,26.74C3.44,33.46.62,40.14,0,47.36a0.87,0.87,0,0,0,1.69.23A90.88,90.88,0,0,1,7,30.64c1.15-2.91,2.31-5.81,3.44-8.73,1.22-3.15,2.29-8.56,4.33-11.11C19.09,5.38,29.57,5.55,36.84,5c-2,1.08-4.07,2.21-6.1,3.3a0.23,0.23,0,0,0,.23.39c2.44-1.27,4.91-2.5,7.33-3.82l0.59-.06c1.39-.16,2.79-0.3,4.18-0.45A52.35,52.35,0,0,0,34.92,9a0.21,0.21,0,0,0,.21.37c3.29-2,6.73-3.5,10.12-5.21,1.78-.18,3.56-0.37,5.34-0.58a152.72,152.72,0,0,0-13.87,7.85,0.17,0.17,0,0,0,.17.29c5.05-3,10.31-5.51,15.41-8.36,2.22-.29,4.44-0.63,6.62-1.07l0,0.17c-7.25,4-14.29,8.9-21.94,12.06-0.19.08-.06,0.42,0.14,0.35,7.47-2.8,14.64-7.39,21.53-11.48l-1.12,4C54.28,9,51.21,10.9,48.09,12.7s-6.41,4.35-9.9,5.2a0.2,0.2,0,0,0,.1.39c3.14-.59,5.88-2.67,8.62-4.22,3.45-1.95,7-3.81,10.34-5.91-0.83,2.89-1.68,5.81-2.61,8.73-3.57,1.82-7,4.06-10.43,6.11a0.21,0.21,0,0,0,.21.36c3.27-1.79,6.7-3.51,9.9-5.49-0.36,1.1-.71,2.2-1.09,3.29-2.27,1.23-4.46,2.58-6.83,3.66-0.29.13,0,.54,0.25,0.42a46.16,46.16,0,0,0,6.22-3.06c-0.49,1.37-1,2.74-1.53,4.09-1.85,1.33-3.68,2.67-5.63,3.88a0.21,0.21,0,0,0,.21.36,45.53,45.53,0,0,0,5-3.22c-0.55,1.34-1.12,2.67-1.72,4-1.94,1.12-3.8,2.41-5.67,3.63a0.19,0.19,0,0,0,.19.32c1.71-1.06,3.47-2.07,5.15-3.19q-1,2-2,3.94h0a20.86,20.86,0,0,1-4.44,2.8,0.1,0.1,0,0,0,.07.18,12.45,12.45,0,0,0,4.08-2.38c-0.44.78-.9,1.54-1.37,2.29-4.8,7.6-14.28,5.54-22,6.11-3.53.26-7,.66-10.55,1.12l0-.14C14.54,37,20,29.37,26.14,22.77a0.66,0.66,0,0,0-.94-0.92c-8,6.16-13.95,14.7-15.86,24.68q-3,.43-6,0.9a0.9,0.9,0,0,0,.23,1.76L9,48.55c-1.18,8.79.61,20.61,8.26,26.21,1.16,0.85,2.39-.76,1.83-1.84-4.38-8.44-8.2-15.25-6.89-24.73l3.24-.35a0.47,0.47,0,0,0,0,.57C19.94,54.25,24,60.27,28.4,66.14a0.54,0.54,0,0,0,0,1c9.89,1.68,18.81-1.76,27.1-6.87C61.19,56.8,69.41,52,67.79,44.17ZM53.48,26.6c1-.55,2-1.1,3-1.71,0.13,0.81.29,1.62,0.49,2.44-1.6.92-3.18,1.85-4.84,2.67Zm-1.6,4.09A34.32,34.32,0,0,0,57.17,28c0.21,0.76.43,1.52,0.69,2.28-2.71,1.55-5.33,3.3-7.95,5C50.63,33.81,51.27,32.25,51.88,30.69Zm-2.36,5.47c2.86-1.73,5.78-3.41,8.54-5.29,0.33,0.92.68,1.85,1.06,2.76-4.55,2.53-8.92,5.52-13.27,8.4A30.32,30.32,0,0,0,49.52,36.16Zm16,9.75c-4.44,2.79-8.76,5.79-13.22,8.58a0.21,0.21,0,0,0,.21.37c4.4-2.61,8.83-5.27,13-8.28C64.68,53.1,54.65,58,49.76,60.6c-6,3.26-12.44,5.45-19.3,5.53a1.11,1.11,0,0,0,0-1,60.33,60.33,0,0,0-13.9-17.34c4.64-.44,9.29-0.76,14-0.78,5.68,0,10.43.45,14.55-4,4.8-2.85,9.74-5.62,14.31-8.81,0.36,0.83.73,1.65,1.12,2.46C52.76,41.2,45.2,46,37.66,50.84a0.15,0.15,0,0,0,.15.25c7.7-4.51,15.44-9,23-13.82,0.53,1.06,1.07,2.11,1.62,3.12C55.15,44.71,48,49.26,40.91,53.81a0.22,0.22,0,0,0,.22.37c7.25-4.3,14.52-8.62,21.63-13.16,0.45,0.8.89,1.57,1.33,2.32-5.13,2.92-10,6.46-14.89,9.71a0.11,0.11,0,0,0,.11.2c5-3.1,10.27-6,15.07-9.41l0.39,0.65a1.3,1.3,0,0,0,.74.59A6.57,6.57,0,0,1,65.51,45.91ZM39.14,22.76a162.3,162.3,0,0,0,16.44-9.55,0.31,0.31,0,0,0-.31-0.54c-5.4,3.35-10.75,6.7-16.34,9.74A0.2,0.2,0,0,0,39.14,22.76Z" transform="translate(-0.01 0)"/></g></g></svg>