<svg id="9c3b09bc-14db-4215-9c01-c5de44557f0d" data-name="Слой 1" xmlns="http://www.w3.org/2000/svg" viewBox="0 0 53.04 57.08"><title>decor5</title><path d="M53,26.62a64.66,64.66,0,0,1-3.34-8.72,16.09,16.09,0,0,0-2.18-5.15,0.92,0.92,0,0,0-1-1.14c-7.72,1.81-15.28,4.75-22.9,7S7.85,22.45.5,25.39a0.71,0.71,0,0,0-.46.89l0,0.11A0.43,0.43,0,0,0,0,26.7,58.85,58.85,0,0,0,4.4,41.83,0.65,0.65,0,0,0,5.5,42a0.46,0.46,0,0,0,.46.19c8.22-1.07,16.37-3.69,24.27-6.15a184.39,184.39,0,0,0,22.11-8,0.76,0.76,0,0,0,.45-0.63A0.75,0.75,0,0,0,53,26.62Zm-24,8c-7.66,2.47-15.55,4.24-23.17,6.8l-0.12.07A59.42,59.42,0,0,0,1.16,26.73c8-1.14,16-4,23.73-6.36,7-2.1,14.26-4,21-6.76,0.63,1.55,1.09,3.06,1.63,4.55-4.15,1.35-8.26,2.94-12.32,4.54-0.24.1-.16,0.49,0.11,0.41,4.17-1.29,8.38-2.63,12.46-4.17A42,42,0,0,0,50,24.51c-3.75.92-7.42,2.3-11.12,3.4a0.26,0.26,0,0,0,.13.5,52.16,52.16,0,0,0,11.2-3.47c0.29,0.55.59,1.09,0.93,1.62-7.44,2.6-14.71,5.6-22.21,8Zm-8.45-18.1c4.7-1.25,8.23-5.65,6.64-10.59A8.62,8.62,0,0,0,18.24.21,0.37,0.37,0,0,0,18,0c-5.45-.22-7.81,6-7.09,10.58C11.63,15.47,16,17.74,20.53,16.52ZM16,2.1a0.86,0.86,0,0,0,.49.08,10.89,10.89,0,0,1,3.24,0c-1,.27-2,0.54-3.06.73a0.21,0.21,0,0,0,0,.41,13.4,13.4,0,0,0,4.35-.81A6.33,6.33,0,0,1,23.6,4a25.08,25.08,0,0,0-7,2.29,0.23,0.23,0,1,0,.18.43h0c2.37-.84,4.79-1.35,7.17-2.1a0.29,0.29,0,0,0,.14-0.12,6.27,6.27,0,0,1,.8,1.33,6,6,0,0,1,.34,1h0a53.19,53.19,0,0,0-8.09,2.25,0.27,0.27,0,0,0,.14.52,53.18,53.18,0,0,0,8.13-2.1A5.35,5.35,0,0,1,25,10.16a0.25,0.25,0,0,0-.24-0.26H24.67A23.8,23.8,0,0,0,21.59,11c-1,.36-2.07.67-3.13,0.95a0.26,0.26,0,0,0,.14.51c2-.4,4.56-0.84,6.28-2.06h0a7.42,7.42,0,0,1-5,4c-3.95,1-6.92-1.42-7-5.53A8.15,8.15,0,0,1,16,2.1ZM29.06,39.86c-3.8.74-5.83,6-5.62,9.64,0.28,4.88,5.32,8.39,10,7.42,5.07-1,8.12-6.7,6.9-11.6C39.2,40.69,33.48,36.74,29.06,39.86Zm4.21,14.8a5.91,5.91,0,0,1-4.08-.28h0a32.5,32.5,0,0,0,7.47-1.92A6.48,6.48,0,0,1,33.27,54.66Zm5-5.36a51,51,0,0,0-5.2,1.46,0.17,0.17,0,0,0,.09.33c1.64-.39,3.34-0.71,5-1.24a8,8,0,0,1-.68,1.54c-2.8.68-5.5,1.94-8.3,2.67a0.15,0.15,0,0,0-.08.24c-4.29-2.26-4.28-10.41.48-13h0a7.71,7.71,0,0,1,5.16.1c-1.3.28-2.6,0.71-3.86,1.11A0.28,0.28,0,0,0,31,43a36.14,36.14,0,0,0,4.51-1.18h0a5.62,5.62,0,0,1,1.6,1.48C34.55,44,32,45.12,29.5,46c-0.35.12-.21,0.68,0.15,0.57,2.61-.82,5.38-1.48,7.9-2.56a7.63,7.63,0,0,1,.8,2.14v0.13a40.53,40.53,0,0,0-6,2,0.27,0.27,0,0,0,.14.52A43.32,43.32,0,0,0,38.4,47a7.46,7.46,0,0,1-.15,2.28h0Zm3-24.57c2.47-.59,5.27-0.93,7.61-2a0.29,0.29,0,0,0-.14-0.54c-2.53.28-5.13,1.38-7.56,2.11a0.22,0.22,0,1,0,0,.44h0.06Zm-1.06-7.26c2-.17,4.51-0.57,6.12-1.79a0.35,0.35,0,0,0-.35-0.6h0c-1,.25-1.93.77-2.92,1.1s-2,.59-3,0.83a0.24,0.24,0,0,0,.09.46h0.06Z"/></svg>