<svg xmlns="http://www.w3.org/2000/svg" viewBox="0 0 65.43 75.71"><title>decor4</title><g id="421e7a11-2f8c-463e-9c47-d863b85bf61c" data-name="Forma 1" style="isolation:isolate"><g id="18c5d592-7372-43f1-bb94-cf5ccbdc08df" data-name="Forma 1"><path d="M65.94,67.35a0.22,0.22,0,0,0,0-.14c-0.75-4.67-4.23-9.94-6-13.45a184.51,184.51,0,0,0-14-23c2.56-6.32,3.8-13.36,5.1-20,3,0.94,10.09,1,7.92-4-0.84-1.92-3-2.58-4.79-3.19a83.87,83.87,0,0,0-11.86-3A5.94,5.94,0,0,0,38.17.29a3.38,3.38,0,0,0-2.32,3.54,5.41,5.41,0,0,0,2.42,4,4.55,4.55,0,0,0,3.38.85c-2.57,6.22-4.06,13.26-6,19.65h0C28.3,31.58,21.49,36.8,15,41.44c-4.23,3-11.59,6.79-13.72,11.87-1.62,3.86,0,7,3.64,8.47,8.4,3.41,17.81,5.33,26.54,7.74,8,2.21,16.42,5.24,24.67,6.16,4,0.44,8.68-.39,9.75-4.94A9,9,0,0,0,65.94,67.35ZM61.15,61.5c0.13,0.29.28,0.59,0.43,0.89-1-.11-1.95-0.17-2.92-0.23a29.52,29.52,0,0,0-1.46-3,13.32,13.32,0,0,0,3,.31C60.53,60.17,60.85,60.83,61.15,61.5Zm-1.21-2.61c-1-.07-2.06-0.14-3.09-0.31-0.49-.87-1-1.67-1.3-2.33-0.22-.43-0.46-0.84-0.68-1.26a19.53,19.53,0,0,1,3.3.29Q59.08,57.07,59.94,58.89ZM53.6,67c-1.73.3-4.18-.7-5.94-1-4-.75-8-1.56-11.93-2.46-3.59-.81-23-3.72-22.69-8.67,0.11-1.59,6.55-6,7.82-7.09,2.88-2.54,5.85-5,8.51-7.72,4.52,0.83,9.84,1.68,14.41,1.16,4,5.86,8.53,12.22,11.07,18.92l0.82,1.82Q57.74,68.43,53.6,67Zm4.19-12.48a17,17,0,0,0-3.06,0,0.19,0.19,0,0,0-.08,0q-1.07-2-2.21-4c1.2,0.24,2.43.56,3.67,0.76C56.66,52.41,57.24,53.46,57.79,54.53Zm-2.11-3.95c-1.11-.19-2.25-0.3-3.32-0.48a0.23,0.23,0,0,0-.19.05c-0.86-1.47-1.77-2.91-2.7-4.34a0.12,0.12,0,0,0,.08,0,13.36,13.36,0,0,1,3.64.3Q54.46,48.34,55.68,50.58Zm6.49,19.88A0.25,0.25,0,0,0,62,70.41c-0.93,0-1.84.15-2.77,0.12a18.09,18.09,0,0,1-3.06-.43,0.25,0.25,0,0,0-.13.49,10.18,10.18,0,0,0,5.73.48,4.79,4.79,0,0,1-2.55,2.13c-2.66.66-6.14-.71-8.7-1.37Q41.33,69.46,32.13,67c-5.77-1.56-11.53-3.16-17.26-4.87-2.32-.69-6.69-1.15-8.57-2.63C1.77,55.91,4.43,52.74,7.79,50c9.63-7.73,21-13.34,30.34-21.28A0.72,0.72,0,0,0,38,27.63c2.69-6.22,5.39-13.55,5.54-20.2a0.65,0.65,0,0,0-1.16-.36,5,5,0,0,1-4.11-3.18C37.64,2,39,1.69,40.38,1.64l0.11,0.05C44,2.64,47.43,3.49,50.86,4.56c1.22,0.38,4.54.85,5.31,1.82q0.9,4.16-2.65,2.85a11.14,11.14,0,0,1-2.39-.76A1,1,0,0,0,49.94,10l-0.19.55a34.08,34.08,0,0,0-4.83-1.32,0.36,0.36,0,0,0-.19.7,34.79,34.79,0,0,0,4.79,1.26l-0.93,2.67h0a26.71,26.71,0,0,0-4.92-1.39,0.4,0.4,0,0,0-.21.78,27,27,0,0,0,4.93,1.25c-0.39,1.13-.78,2.27-1.16,3.41a12.8,12.8,0,0,0-4.5-.75c-0.41,0-.39.6,0,0.63,1.47,0.11,2.85.53,4.29,0.74-0.34,1.05-.67,2.11-1,3.17-1.28-.26-2.61-0.38-3.89-0.56-0.3,0-.44.41-0.13,0.47,1.26,0.24,2.55.57,3.84,0.74-0.31,1.08-.6,2.16-0.86,3.24-0.41,0-.81-0.06-1.21-0.13a18,18,0,0,1-2.63-.68c-0.3-.1-0.41.36-0.13,0.47a16.18,16.18,0,0,0,3.78,1.1q-0.26,1.19-.47,2.37A9.27,9.27,0,0,0,40,28.53a0.25,0.25,0,0,0,.07.48,15.83,15.83,0,0,1,4.14.39c-0.05.32-.12,0.64-0.16,1a0.87,0.87,0,0,0-.2,1.27c0.47,0.66.92,1.34,1.38,2a28.66,28.66,0,0,1-3.86-.8c-0.33-.1-0.46.4-0.14,0.52a17.56,17.56,0,0,0,4.58,1.14Q47,36.21,48.15,38c-1.35-.18-2.76-0.22-4.09-0.27a0.21,0.21,0,0,0-.05.41,38.84,38.84,0,0,0,4.59.56c0.65,1,1.3,2,1.93,3-1.11-.22-2.24-0.35-3.35-0.51-0.43-.06-0.62.58-0.18,0.67,1.33,0.26,2.69.57,4.05,0.7,0.61,1,1.23,2,1.82,3a13.54,13.54,0,0,0-3.32,0,0.14,0.14,0,0,0-.12.19c-1.24-1.91-2.52-3.79-3.88-5.62a1.06,1.06,0,0,0-.66-0.42,0.89,0.89,0,0,0-.45-0.3c-4.34-1.29-9.68-1.32-14.27-1.2a0.64,0.64,0,0,0-.85-0.14C24.4,41,20.15,45,15.93,48.77,14,50.52,8.71,53.71,9.52,57c0.77,3.11,6.13,3.53,8.47,4.2q9.58,2.75,19.29,5c5.43,1.25,11.06,2.75,16.61,3.28,2.47,0.24,4.77,0,5.49-2.8,0,0,0,0,0-.07a0.16,0.16,0,0,0,.12.08c1.19,0.19,2.42.44,3.65,0.61A8,8,0,0,1,62.17,70.46Zm1-3.82c-1.21-.14-2.43-0.21-3.6-0.33a0.16,0.16,0,0,0-.13,0,7.49,7.49,0,0,0-.58-3.68c1,0.19,2.06.38,3.1,0.48a10.91,10.91,0,0,1,1.21,3.41S63.17,66.62,63.17,66.64ZM32.08,44.55a2,2,0,0,1-1,1,0.9,0.9,0,0,1-.94-0.09,1.41,1.41,0,0,1,.32-1.82,0.63,0.63,0,0,0-.31-1.16,2.52,2.52,0,0,0-2.19,1.66,2.88,2.88,0,0,0,.68,3,2.71,2.71,0,0,0,3.31.21,2.21,2.21,0,0,0,1-2.83A0.48,0.48,0,0,0,32.08,44.55Zm-9.31,6.11a0.36,0.36,0,0,0-.49.49A1.75,1.75,0,0,1,22.46,53a1.14,1.14,0,0,1-1.31.52c-1.17-.26-0.81-1.8,0-2.3a0.43,0.43,0,0,0-.1-0.79,2.3,2.3,0,0,0-2.6,1.9,2.76,2.76,0,0,0,2.07,3.25,2.83,2.83,0,0,0,3.4-1.7A2.79,2.79,0,0,0,22.77,50.65Zm8,0a0.39,0.39,0,0,0-.23.57c0.4,0.54.94,0.86,0.8,1.64a1,1,0,0,1-1.09.83c-1.34,0-1.46-1.78-.54-2.47,0.58-.43.28-1.64-0.54-1.31a3.11,3.11,0,0,0-2,3.3,3,3,0,0,0,3.09,2.52,2.64,2.64,0,0,0,2.65-2.6C32.94,52.13,32.08,50.35,30.8,50.67ZM55.72,8.09c0.42,0,.44-0.57.09-0.7C52,6,47.72,5.47,43.75,4.66a0.31,0.31,0,0,0-.16.6C47.55,6.27,51.66,7.63,55.72,8.09Z" transform="translate(-0.64 -0.06)"/></g></g></svg>