<svg id="b3ce12dc-9720-4c01-bd11-69a1e98b760c" data-name="Слой 1" xmlns="http://www.w3.org/2000/svg" viewBox="0 0 72.01 66.02"><title>decor2</title><path d="M71.83,64.12c-1.29-1.84-2.63-3.67-4-5.48a0.21,0.21,0,0,0-.12-0.15c-12-15.91-27-30.66-44.06-40.91A13,13,0,0,0,19.32,5C14.74,1.22,8.59,2.43,3.15,1.19A7.47,7.47,0,0,0,1.47.1c-1.1-.52-2.08,1.11-1,1.64,5,2.39,3.18,8.36,3.94,12.71a10.79,10.79,0,0,0,4.48,7.09,10,10,0,0,0,8.83,1.33C21.53,46.12,46,62.87,68.43,66a0.68,0.68,0,0,0,.36-1.31c-11.65-3.81-22.83-7-32.46-15a53.28,53.28,0,0,1-9.91-10.8A10.67,10.67,0,0,0,38.28,33.6h2.79Q43,35.28,44.84,37c-2.65-.06-5.34.07-8,0.13a0.17,0.17,0,0,0,0,.33c2.84,0.07,5.74.21,8.59,0.11,0.94,0.88,1.89,1.76,2.82,2.66a75.34,75.34,0,0,0-10.06.32,0.2,0.2,0,0,0,0,.4c3.55-.2,7.07-0.22,10.62-0.17l2.65,2.63a51.59,51.59,0,0,0-9.54.64c-0.26,0-.15.43,0.11,0.4A77.88,77.88,0,0,1,52,44c1.06,1.08,2.12,2.17,3.16,3.28-3.4.06-6.84,0.4-10.2,0.63a0.13,0.13,0,0,0,0,.25c3.54-.06,7.18,0,10.74-0.3,0.67,0.72,1.35,1.43,2,2.16-3.53.14-7.09,0.51-10.6,0.84a0.15,0.15,0,0,0,0,.29c3.65-.17,7.36-0.3,11-0.69,0.66,0.73,1.33,1.44,2,2.18-3.52.15-7,.39-10.54,0.61a0.17,0.17,0,0,0,0,.35c3.66-.13,7.32-0.24,11-0.45C61.28,54,62,54.79,62.68,55.63a47.8,47.8,0,0,0-5,.34,0.14,0.14,0,0,0,0,.28,47.7,47.7,0,0,0,5.47,0c0.74,0.89,1.48,1.78,2.2,2.69a18.47,18.47,0,0,1-4.71,0,0.17,0.17,0,0,0,0,.33,16,16,0,0,0,5.12.1c0.6,0.76,1.21,1.51,1.8,2.28a0.12,0.12,0,0,0-.08,0,12.59,12.59,0,0,0-4.93.26c-0.13,0-.1.25,0,0.24,1.63-.2,3.23-0.13,4.86-0.21a0.16,0.16,0,0,0,.14-0.18v0c0.88,1.16,1.77,2.31,2.63,3.5C70.86,66.12,72.56,65.16,71.83,64.12ZM11.42,20.51C7,18.45,6.34,14.45,6.18,10.13,6.09,7.6,5.85,5,4.67,3c2.9,0.63,5.91.55,8.95,1.31A12,12,0,0,1,15.44,5a33.23,33.23,0,0,0-6.69.17c-0.19,0-.13.31,0,0.32,2.74,0.14,5.52.28,8.27,0.37a10.59,10.59,0,0,1,1.44,1.08A58.37,58.37,0,0,0,8,7.1c-0.15,0-.16.25,0,0.24,3.69-.15,7.35,0,11,0.05a10.55,10.55,0,0,1,1.43,1.86c-3.15-.14-6.34,0-9.49.08a0.14,0.14,0,0,0,0,.27c3.22,0,6.49.23,9.72,0.07a11.21,11.21,0,0,1,.93,2.25c-3.5-.29-7.16,0-10.65.06a0.16,0.16,0,0,0,0,.32c3.54,0,7.24.36,10.78,0.05A12.14,12.14,0,0,1,22,14.1a80.31,80.31,0,0,0-9.18,0,0.16,0.16,0,1,0,0,.31h0a80.14,80.14,0,0,0,9.22,0v1.18H22c-4,0-8.11.11-12.14,0.42a0.13,0.13,0,0,0,0,.26c4.05-.12,8.09-0.2,12.14-0.17H22a13.71,13.71,0,0,1-.33,2.25h0C18.08,18,14,18.71,10.38,19a0.14,0.14,0,1,0,0,.28h0c3.63-.11,7.72.16,11.28-0.59h0C18.75,21.13,15,22.19,11.42,20.51Zm26,10.55a12,12,0,0,1-1,1.93c-1.84.12-3.68,0.34-5.46,0.59a0.16,0.16,0,0,0,0,.31c1.67-.17,3.32-0.23,5-0.27a10.4,10.4,0,0,1-10,4,0.6,0.6,0,0,0-.3,0,53,53,0,0,1-6.72-15.3,10.11,10.11,0,0,0,3.62-2.88A0.79,0.79,0,0,0,23.14,19q1.79,1.34,3.54,2.7c-1.38,0-2.77.07-4.13,0.09a0.18,0.18,0,0,0,0,.35c1.58,0,3.2.12,4.78,0.07l2.08,1.62c-2.11,0-4.23.09-6.33,0.12a0.16,0.16,0,0,0,0,.31c2.32,0,4.66.16,7,.1,1.13,0.9,2.27,1.79,3.38,2.7a58.6,58.6,0,0,0-9.29.33,0.18,0.18,0,0,0,0,.36c3.3-.18,6.59-0.1,9.88-0.2l2.88,2.39c-3.08-.09-6.21.09-9.26,0.17a0.15,0.15,0,0,0,0,.3c3.28,0.08,6.68.28,10,.14h0A0.93,0.93,0,0,0,37.37,31.06Zm1.22,1.84A8.36,8.36,0,0,0,39,31.73c0.46,0.39.91,0.8,1.36,1.2q-0.91,0-1.79,0h0Z"/></svg>