<svg id="5f1a15eb-a9d3-4016-8f20-edeedacfaf23" data-name="Слой 1" xmlns="http://www.w3.org/2000/svg" viewBox="0 0 66.76 89.9"><title>decor9</title><path d="M55.12,8.17C44.51-.54,28.85-2.83,16.73,4A26.84,26.84,0,0,0,4.63,18.85c-1.77,5-4.82,12.94-1.07,17.71a0.73,0.73,0,0,0,1,.1l0.1-.1a0.71,0.71,0,0,0,1,.61c5-2.07,10-4.28,14.88-6.74a1,1,0,0,0,.56-0.76,0.77,0.77,0,0,0,.17-0.21c2.37-4.65,6.43-8.19,12-7.82A11.49,11.49,0,0,1,43.64,32.32,12.11,12.11,0,0,1,34.91,44c-5.53,1.48-9.38-1.27-13.79-4a1.09,1.09,0,0,0-1.54,1.34c-3.72,7-8.13,14.56-10.78,22a0.83,0.83,0,0,0,.2.87,0.88,0.88,0,0,0,.3,1.21l0.1,0.05c3.74,1.92,7.47,3.93,11.37,5.5h0V71a1.22,1.22,0,0,0,2.35.62A45.7,45.7,0,0,1,28.82,61C42,64.41,58.33,57,64,44.76,69.92,31.95,65.95,17.07,55.12,8.17ZM44.88,23.95C51.12,27.85,57.5,31.68,64,35.12a27.44,27.44,0,0,1-.63,3.52,106.62,106.62,0,0,1-14.07-7.32,0.24,0.24,0,0,0-.24.41,70.19,70.19,0,0,0,14.11,7.66c-0.21.76-.46,1.52-0.73,2.27-2.83-1.56-5.76-3-8.59-4.51a0.22,0.22,0,0,0-.22.38,53.86,53.86,0,0,0,8.56,4.79c-0.27.67-.54,1.33-0.86,2-0.24.48-.52,0.94-0.8,1.41A73.51,73.51,0,0,0,46,39.08c-0.27-.1-0.46.35-0.19,0.46,4.92,2,9.59,4.55,14.41,6.78a23.41,23.41,0,0,1-1.92,2.55A49.49,49.49,0,0,0,46.4,43.11a0.21,0.21,0,1,0-.16.39h0c3.92,1.83,7.69,4.06,11.6,5.88a26.94,26.94,0,0,1-4.36,3.88,121.23,121.23,0,0,0-13.22-7.6,0.2,0.2,0,0,0-.2.35c4.31,2.47,8.52,5.09,12.74,7.72a30.9,30.9,0,0,1-4,2.28,0.29,0.29,0,0,0-.14-0.19c-3.44-2.07-6.9-4-10.25-6.23-0.25-.16-0.46.22-0.23,0.39a61.09,61.09,0,0,0,10,6.29A32.24,32.24,0,0,1,37.3,59h0c-4.3-2.14-8.5-4.45-12.68-6.83a0.18,0.18,0,0,0-.18.3c3.75,2.4,7.61,4.57,11.61,6.6a26.83,26.83,0,0,1-7.82-.88,1.17,1.17,0,0,0-1.06.18c-2.31-1.36-4.83-2.47-7.22-3.64a0.2,0.2,0,0,0-.2.34c2.3,1.27,4.63,2.67,7,3.77a1.47,1.47,0,0,0-.08,1c-0.37.42-.74,0.86-1.09,1.31A11.18,11.18,0,0,0,20,58.67,0.15,0.15,0,0,0,20,59,22.7,22.7,0,0,1,23,60.16c0.82,0.41,1.56,1,2.37,1.37a28.24,28.24,0,0,0-1.75,2.62A41.83,41.83,0,0,0,16,59.55a0.23,0.23,0,1,0-.23.4h0a64.59,64.59,0,0,1,7.47,4.8c-0.33.59-.64,1.2-0.92,1.82l0-.06A64.5,64.5,0,0,0,15,63.32a0.2,0.2,0,0,0-.15.37A64.42,64.42,0,0,0,22,67h0a19.22,19.22,0,0,0-.77,2c-3.4-1.92-7-3.49-10.55-5.11,4.83-5.67,8-14,9.65-21.32,3.75,4.42,11.24,5.51,16.4,3.47,5.92-2.34,10-8.83,9.09-15.2-2-13.5-22.21-15.84-26-2.53a1.22,1.22,0,0,0-.49.12C14.52,30.74,9.72,33.32,5,36L5,36.06a0.69,0.69,0,0,0-.09-0.47c-3-4.86,1.57-15.93,4-20.33a24.52,24.52,0,0,1,14-11.32c11.36-3.75,24.22-.33,32.72,8a28.93,28.93,0,0,1,5.24,7c-6.24-4.19-12.68-8.1-19.25-11.71C40.47,6.62,38,4.69,37.63,6.89c0.37-1,21.91,12.3,23.85,13.48a28.29,28.29,0,0,1,2,5.79A298,298,0,0,0,29.88,6.75a0.23,0.23,0,1,0-.23.4h0C41.19,13.49,52.53,20,63.65,27h0a27.66,27.66,0,0,1,.4,3.32A140.54,140.54,0,0,0,36.49,14.52c-0.19-.09-0.36.19-0.17,0.29,9.58,4.94,18.6,10.48,27.82,16A27.32,27.32,0,0,1,64,34.4C57.89,30.55,51.47,27,45,23.57A0.21,0.21,0,0,0,44.88,23.95ZM19.58,76c-2.29-3.72-8-5.78-12-7.17a0.74,0.74,0,0,0-1.34-.19A43,43,0,0,0,0,82a1.19,1.19,0,0,0,.82,1.47l0.07,0a1.19,1.19,0,0,0,.3.25c3.9,2.16,8.3,4.89,12.61,6.07a1,1,0,0,0,.44,0A0.6,0.6,0,0,0,15,89.58c1.66-3.53,4.2-7.88,4.7-11.76A1.08,1.08,0,0,0,19.52,77,0.82,0.82,0,0,0,19.58,76Zm-1.67,1a15.73,15.73,0,0,0-1.29,2.4,45,45,0,0,0-8.11-4.12C8.23,75.2,8,75.6,8.27,75.74c2.74,1.35,5.39,3,8.15,4.29-0.28.68-.53,1.39-0.76,2.1A55.88,55.88,0,0,1,9,78.44a0.22,0.22,0,0,0-.26.34,25.93,25.93,0,0,0,6.66,4c-0.17.57-.33,1.14-0.49,1.7-3-1.41-6.07-2.64-9.05-4a0.24,0.24,0,1,0-.24.42,61.77,61.77,0,0,0,9.08,4.35c-0.23.84-.44,1.67-0.65,2.47C10.76,85.32,6.46,83.64,2.71,82A82.69,82.69,0,0,1,6.88,70.75,61.38,61.38,0,0,1,13,74,36.73,36.73,0,0,0,18,77H17.91Zm9.84-27.59a161.62,161.62,0,0,0,15.15,8A0.25,0.25,0,0,0,43.15,57,161.52,161.52,0,0,0,28,49a0.25,0.25,0,1,0-.2.46h0v0Z"/></svg>