<svg id="7ca5dc10-d4a7-456c-874f-30e5536935f8" data-name="Capa 1" xmlns="http://www.w3.org/2000/svg" viewBox="0 0 45.45 62.68"><title>decor1</title><path d="M30.66,32.77c7.94-1.66,17.49-9.13,14.08-18.11C41.16,5.22,31-.52,21.16,0,11.63,0.58,1.32,6.82.11,17c-1,8.77,5.32,17.61,14.3,18.08a30.6,30.6,0,0,1,.54,7.42,0.63,0.63,0,0,0,.23.52,0.52,0.52,0,0,0,.25.68c4.2,2.16,10.24,2.48,14.32-.22a1,1,0,0,0,.78-0.31q0.84,4.52-2.24,4.52a9.62,9.62,0,0,1-2,.17c-1.17.06-2.35,0-3.53,0s-2.35-.06-3.52-0.15l-1.41-.1q-4,.38-3.33-4.73A0.44,0.44,0,0,0,14.38,42c-2.25-.17-3.53,2.2-2.78,4.23a3.76,3.76,0,0,0,.62,1.06,3.19,3.19,0,0,0-1.34,4.26,4,4,0,0,0,.24.48A4.85,4.85,0,0,0,10,56.77c0.35,1.28,1.49,3.19,3,3.17,5,2.64,12.17,3.7,17.23,1.67,3.53-1.42,5.38-5.43,2.74-8.18a5.08,5.08,0,0,0,.61-6.38,0.84,0.84,0,0,0-.33-0.29c0-.09.1-0.18,0.14-0.28a3.57,3.57,0,0,0-2.68-5,33.27,33.27,0,0,1-.3-8.71A1.08,1.08,0,0,0,30.66,32.77ZM29.28,60.35c-1.79.56-3.84,0.29-5.68,0.18a41.1,41.1,0,0,1-9.89-1.4,0.55,0.55,0,0,0,0-.08,4.12,4.12,0,0,0-1-1,4.28,4.28,0,0,1-.85-5.16c2,2,5.75,2.16,8.16,2.45,3.7,0.45,9,1.33,12.23-1.18l0.2-.18C34.25,56.31,31.69,59.59,29.28,60.35Zm-6.1-6.54A51.13,51.13,0,0,1,17,53.09c-1.47-.28-7.76-1.6-4.08-5.12,2.63,2,7.91,1.62,10.56,1.67S30,50,32.21,48.11C35.47,53.57,26.12,54,23.17,53.81ZM16.39,42.72l0,0a22.07,22.07,0,0,0-.13-8.46A0.88,0.88,0,0,0,15,33.6C7.17,31.24.84,25.12,2.63,16.16,4.36,7.51,13.76,2.57,21.95,2.26a21.74,21.74,0,0,1,10,2,37.74,37.74,0,0,0-10.33-.26c-0.18,0-.19.3,0,0.29a56.09,56.09,0,0,1,12,.87,21.59,21.59,0,0,1,3.5,2.52C32.63,7.43,28,7.63,23.4,7.61a0.12,0.12,0,0,0,0,.24C28.14,8,33,8.4,37.72,8.21A21.22,21.22,0,0,1,40.17,11C35,10.44,29.8,10.39,24.66,10.13c-0.15,0-.14.21,0,0.23,2.77,0.28,5.58.6,8.4,0.82a0.55,0.55,0,0,0-.17.12,34.83,34.83,0,0,0-6.87,11c-1.14-.15-2.31-0.35-3.53-0.43A17.05,17.05,0,0,0,14.88,23a30.62,30.62,0,0,0-2.75-3.82c-0.52-.61-1.41.17-1.07,0.83,0.69,1.33,1.34,2.64,2,3.94-1.94,1.22-3.56,3.09-2.06,5.32,0.31,0.45,1.14.18,0.94-.4-0.56-1.57.33-2.71,1.78-3.52a64.27,64.27,0,0,1,5.39,17.81A20.16,20.16,0,0,1,16.39,42.72Zm3.93,0.6a0.58,0.58,0,0,0,0-.2,39.61,39.61,0,0,0-4.63-18.57,23.05,23.05,0,0,1,6-1,24.45,24.45,0,0,1,3.6.44,38.28,38.28,0,0,0-1.47,19.14A20.63,20.63,0,0,1,20.33,43.32Zm9.76-12.63-0.07,0a0.76,0.76,0,0,0-.85.17c-1,0-2,0-3,0a0.14,0.14,0,0,0,0,.28c0.95,0,1.9,0,2.84,0v0a23,23,0,0,0-.63,2.61c-0.81,0-1.63,0-2.44,0a0.19,0.19,0,0,0,0,.38c0.79,0,1.59,0,2.38,0a20.47,20.47,0,0,0-.24,2.1,5.19,5.19,0,0,1-2.33.22c-0.27,0-.39.36-0.12,0.42a4.44,4.44,0,0,0,2.42-.1,17.81,17.81,0,0,0,.07,2.24,8.48,8.48,0,0,1-1.93.17,0.24,0.24,0,0,0-.06.47,2.9,2.9,0,0,0,2-.19,14.88,14.88,0,0,0,.57,2.64c-1.18.31-2.31,0.58-3.42,0.77a44.57,44.57,0,0,1,2.2-18.66,10.7,10.7,0,0,0,1.75,0c2.52-.2,4.63-1.32,5.19-3.84a0.43,0.43,0,0,0-.71-0.41,6.64,6.64,0,0,1-5.55,2.37A52,52,0,0,1,33.84,12a0.56,0.56,0,0,0-.24-0.81c2.31,0.17,4.62.27,6.91,0.25,0.21,0.3.42,0.6,0.62,0.92A15.72,15.72,0,0,1,42,14a40.49,40.49,0,0,0-8.11-.09,0.13,0.13,0,0,0,0,.26c2.78,0,5.56.31,8.33,0.31a11.14,11.14,0,0,1,.63,2,32.64,32.64,0,0,0-8.22-.27,0.13,0.13,0,0,0,0,.26A80.82,80.82,0,0,1,43,17a8.5,8.5,0,0,1,.1,2,46.2,46.2,0,0,0-7.16.14,0.15,0.15,0,0,0,0,.3,46.38,46.38,0,0,0,7.1.14,8.42,8.42,0,0,1-.54,2,29.78,29.78,0,0,0-7.1.34,0.19,0.19,0,0,0,0,.36c2.28-.21,4.52-0.13,6.78-0.11a11.8,11.8,0,0,1-1.32,2.06c-2.15,0-4.32.17-6.47,0.18a0.14,0.14,0,0,0,0,.27,50.57,50.57,0,0,0,5.93.19L40,25.2a17.27,17.27,0,0,1-1.4,1.33c-3.4-.11-6.83.06-10.23,0.1a0.17,0.17,0,0,0,0,.34c3.17,0,6.37.19,9.55,0.12a17.86,17.86,0,0,1-2.51,1.62,50.91,50.91,0,0,0-8.54-.27,0.18,0.18,0,0,0,0,.36c2.47,0.05,4.93.33,7.39,0.47A23.78,23.78,0,0,1,30.09,30.69Z" fill="#3aaa35"/></svg>