<svg id="1e35ab8a-090b-4a1c-ba19-54ebac9fef2e" data-name="Слой 1" xmlns="http://www.w3.org/2000/svg" viewBox="0 0 50.98 73.95"><title>decor10</title><path d="M50.94,71c-7.1-23.25-14.79-46.8-24-69.3a0.73,0.73,0,0,0-.6-0.47A0.83,0.83,0,0,0,25.62.4,46.48,46.48,0,0,0,10.8.82a0.77,0.77,0,0,0-.27.1,0.7,0.7,0,0,0-1.26.16C5.9,12,5.22,24.23,3.72,35.56,2.1,47.74,0,60.13,0,72.43A0.68,0.68,0,0,0,1,73a0.85,0.85,0,0,0,.78.42c4.33,0,8.71-.13,13-0.5a1.31,1.31,0,0,0,1.15-1.64,0.91,0.91,0,0,0,.45-0.74c0.16-3.75.33-7.39,0.73-11.12,4.25,0.62,8.79,1.33,13,1a39.28,39.28,0,0,0,5,12.18,0.89,0.89,0,0,0,1,1.34,59.89,59.89,0,0,1,13.41-1.45,1.29,1.29,0,0,0,.76-0.26A1,1,0,0,0,50.94,71ZM29.38,14.88a80.12,80.12,0,0,0-8.26.35A39.81,39.81,0,0,1,20,11.36c2.75-.07,5.49-0.2,8.22-0.45C28.58,12.23,29,13.56,29.38,14.88ZM37.5,71.54a64.78,64.78,0,0,1-5.94-12.38,0.83,0.83,0,0,0-.6-0.55,1,1,0,0,0-.39-0.18c-4.61-1.1-9.83-1-14.56-1H15.84a1.1,1.1,0,0,0-1.12.88,34,34,0,0,0-.22,12.08C10.27,70.61,6,71,1.77,71.52a1,1,0,0,0-.29.09c2.18-11,3-22.43,4.44-33.64C7.41,26.33,10.25,14.26,10.58,2.5a0.78,0.78,0,0,0,.47.14c4.77-.23,9.53,0,14.3-0.22a1,1,0,0,0,.36-0.09C26,3.22,26.22,4.11,26.47,5,23,5.16,19.5,5.46,16,5.72a0.23,0.23,0,0,0,0,.46C19.53,6.05,23.1,6,26.62,5.69,26.84,6.44,27,7.2,27.27,8a50.65,50.65,0,0,0-11.93.77,0.17,0.17,0,0,0,0,.33c4-.42,8-0.4,12-0.63,0.19,0.65.38,1.3,0.58,2-2.85.06-5.7,0.2-8.55,0.35H19.26a1,1,0,0,0-1.6.14c-1.61.08-3.22,0.16-4.82,0.22a0.22,0.22,0,1,0,0,.43l4.67-.06c-2.34,10.78-4.42,24.11-2.47,35a0.49,0.49,0,0,0,.48.4A0.89,0.89,0,0,0,16,48.45c2.35,0.06,4.69.08,7,.22,2.07,0.12,4.29.67,6.28,0a1,1,0,0,0,.23-1.76c-1.85-1-4-.77-6-0.76a61.88,61.88,0,0,0-7.49.47,0.48,0.48,0,0,0,.15-0.24c1.26-5.36,1.16-11,1.59-16.52,0.37-4.83,1-9.65,1.4-14.48a64.77,64.77,0,0,0,3.55,10c2.94,6.94,4.67,14,7.08,21.07,0.31,0.91,1.85.83,1.77-.24-0.77-11-6.82-20.44-10.32-30.61a77.51,77.51,0,0,0,8.26-.33c0.26,0.86.52,1.72,0.79,2.58-1.17.07-2.34,0.23-3.51,0.28-1.36.06-2.72,0.06-4.07,0.22a0.12,0.12,0,0,0,0,.24,26.9,26.9,0,0,0,7.76-.17c0.37,1.2.73,2.4,1.12,3.6h0a56.18,56.18,0,0,0-7.45,0,0.25,0.25,0,0,0,0,.5,56.09,56.09,0,0,0,7.45,0,0.23,0.23,0,0,0,.14-0.07c0.3,0.93.59,1.86,0.89,2.79h-0.1a52.31,52.31,0,0,0-6.83,0,0.24,0.24,0,0,0,0,.47,52.82,52.82,0,0,0,6.83,0,0.22,0.22,0,0,0,.18-0.14c0.47,1.46.94,2.91,1.42,4.37a48.53,48.53,0,0,0-6.57,0,0.19,0.19,0,0,0,0,.37,47.14,47.14,0,0,0,6.71,0L35.46,34c-2.1-.13-4.26,0-6.36,0a0.16,0.16,0,0,0,0,.32c2.15,0,4.35.18,6.5,0,0.37,1.1.73,2.21,1.11,3.31-2.11-.1-4.26,0-6.37.08a0.15,0.15,0,0,0,0,.3c2.16,0,4.37.2,6.52,0.08,0.35,1,.68,2,1,3-1,.09-2,0.39-3,0.49a22.5,22.5,0,0,1-3.29.09,0.18,0.18,0,0,0,0,.36c2,0.17,4.53.28,6.46-.52l1.61,4.68a69.41,69.41,0,0,0-7.45.47,0.22,0.22,0,0,0,0,.43,70.41,70.41,0,0,0,7.52-.42l0.08,0,1.3,3.68A113.25,113.25,0,0,0,27.22,51a0.19,0.19,0,0,0,0,.37c4.67-.25,9.41-0.21,14.07-0.58C41.66,52,42,53,42.42,54.05c-4.43-.13-8.94.25-13.35,0.41a0.21,0.21,0,0,0,0,.42c4.48-.06,9.07.09,13.55-0.28l2,5.6c-3,.14-6,0.49-9.07.49a0.2,0.2,0,1,0,0,.4h0a46.53,46.53,0,0,0,9.23-.45l1.35,3.67c-3.31,0-6.64.39-10,.35a0.14,0.14,0,0,0,0,.28,49,49,0,0,0,10.09-.28c0.38,1,.75,2,1.13,3.06-3.31-.06-6.68.26-10,0.47a0.2,0.2,0,0,0,0,.4c3.36-.07,6.81,0,10.16-0.38l0.58,1.55A32.75,32.75,0,0,0,37.5,71.54Zm5.84-14.36c-2.89,0-5.8.26-8.69,0.42a0.17,0.17,0,1,0,0,.33c2.88-.08,5.82,0,8.69-0.28A0.24,0.24,0,0,0,43.34,57.18Z"/></svg>