<svg id="4db44458-1045-4088-8d1f-5ec2daf640d5" data-name="Слой 1" xmlns="http://www.w3.org/2000/svg" viewBox="0 0 92.39 88.32"><title>decor11</title><path d="M85.34,32.64c-6.25-8.22-13-16-19.74-23.8C62.67,5.47,58.34-2,53.34,1A0.72,0.72,0,0,0,52.73.14H52.48a0.76,0.76,0,0,0-.86,0C39.77,1,31.86,19.6,32.34,29.65a0.45,0.45,0,0,0,.89.11C35.44,19,40.68,6.41,51.67,2.05c0.51,0.87,1,1.73,1.58,2.58a0.41,0.41,0,0,0-.41.14,51.16,51.16,0,0,1-4,4.5,0.46,0.46,0,0,0,.55.73A12.58,12.58,0,0,0,53.6,5.35a0.46,0.46,0,0,0,0-.11q1,1.49,1.94,3a22.1,22.1,0,0,0-3.07,2.89A47.11,47.11,0,0,0,49,14.86a0.3,0.3,0,0,0,.42.42,47,47,0,0,0,3.73-3.45,23.13,23.13,0,0,0,2.85-3c0.74,1.08,1.49,2.16,2.26,3.22a39,39,0,0,0-3.58,3.67,0.4,0.4,0,1,0,.57.57h0a41.29,41.29,0,0,0,3.58-3.47c0.69,0.94,1.38,1.87,2.09,2.79a62.31,62.31,0,0,0-6.55,6.47,0.41,0.41,0,0,0,.58.58,63.41,63.41,0,0,0,6.42-6.53c0.79,1,1.59,2,2.41,3a45.1,45.1,0,0,0-3.64,3.76,0.41,0.41,0,1,0,.58.58,48.07,48.07,0,0,0,3.7-3.56q1.21,1.47,2.45,2.92a29.35,29.35,0,0,0-5.64,6.3,0.41,0.41,0,0,0,.64.49c1.69-2.17,3.66-4,5.5-6.05q1.46,1.69,3,3.36a0.36,0.36,0,0,0-.21.15,14.85,14.85,0,0,1-2.7,3.23c-0.38.32,0.16,0.83,0.54,0.54a8.55,8.55,0,0,0,2.8-3.45q1.32,1.46,2.66,2.89c-2.1,1.91-4,4.08-6,6.12a0.34,0.34,0,0,0,.48.48C70,35,72.15,33,74.06,31c0.78,0.83,1.56,1.66,2.34,2.47a75.26,75.26,0,0,0-5.55,5.76,0.29,0.29,0,0,0,.41.41C73.2,37.81,75.26,36,77,34c0.87,0.9,1.74,1.8,2.62,2.68-1.45,1-2.8,2.32-4.15,3.46-0.23.2,0.08,0.62,0.33,0.43,1.45-1.08,3-2.12,4.39-3.33q2,2,4.07,4h0.07a0.8,0.8,0,0,0-.26-0.07C74.6,40.55,64.77,46.38,59.14,54l-1.8.7c-0.45.17-.29,0.89,0.19,0.74l0.81-.23c-0.23.34-.46,0.67-0.67,1-8-8.86-16.56-17.31-25.16-25.62a0.52,0.52,0,0,0-.4-0.59l-0.3-.06a0.85,0.85,0,0,0-.8-0.15C18,27.23,6,37.13,2.74,49.37a1.13,1.13,0,0,0,.75,1.41h0a0.69,0.69,0,0,0-.42.36,3.06,3.06,0,0,0-.3,1.54,0.74,0.74,0,0,0-.25.23Q1.26,54.72.1,56.59a0.76,0.76,0,0,0,.12.91c11.48,10,22,23.51,36.16,29.92,4,1.82,5.42.81,8.2-2.45A83.19,83.19,0,0,0,57.67,65.05c1.16,0.29,2.38-.51,3.27-1.16,1.43-1,3.33-3.48,2.68-5.4a87.19,87.19,0,0,0,13.15-5.27C80.52,51.5,88.64,49.13,91.4,46,95,41.8,87.68,35.75,85.34,32.64Zm-0.54,3.1c0.2,0.27.47,0.6,0.76,0.94h0c-1.17-1-2.36-1.93-3.24-2.8-0.27-.26-0.52-0.53-0.77-0.8a8.25,8.25,0,0,0,.66-0.91c1.22,1.75,2.13,3,2.56,3.56h0Zm-3.08-4.16a12.14,12.14,0,0,1-.72,1,47.82,47.82,0,0,1-3.1-3.79,13.73,13.73,0,0,0,1-1c1,1.34,2,2.66,2.79,3.78h0Zm-3.24-4.3h0a13.23,13.23,0,0,0-1,.92c-1-1.31-1.86-2.66-2.75-4a6,6,0,0,0,.59-1c1,1.4,2.14,2.78,3.13,4.08h0ZM71.12,18c1.24,1.52,2.47,3.06,3.66,4.56h0c-0.18.29-.37,0.58-0.56,0.85l-0.57-.88c-0.85-1.36-1.76-2.68-2.7-4A2.92,2.92,0,0,0,71.09,18h0Zm-3.27-3.9c0.94,1.09,1.88,2.22,2.82,3.36a0.33,0.33,0,0,0-.27.2l-0.06.1c-0.88-1.16-1.79-2.3-2.71-3.42Zm-3.41-3.79c0.93,1,1.88,2.06,2.84,3.17L67,13.64c-0.9-1.07-1.83-2.12-2.76-3.17ZM61.13,6.85C62,7.67,62.88,8.59,63.81,9.57l-0.15.18c-0.85-.95-1.71-1.89-2.58-2.83ZM58.8,8C57.42,6.26,56,4.5,54.65,2.75a3.45,3.45,0,0,1,2.14.62,0.43,0.43,0,0,0,.12.44q1.51,1.48,3,3C59.51,7.21,59.15,7.62,58.8,8Zm0.46,0.59c0.42-.37.85-0.74,1.27-1.14,0.9,0.94,1.79,1.88,2.66,2.85-0.43.55-.85,1.12-1.26,1.68Zm3.19,4.06c0.47-.54.94-1.08,1.39-1.63,0.91,1,1.8,2,2.66,3.1-0.55.54-1.07,1.11-1.59,1.68Zm3,3.77c0.57-.52,1.14-1,1.68-1.59,1,1.2,1.89,2.43,2.78,3.69a4.13,4.13,0,0,1-1.58,1.59Zm3.31,4.23a5,5,0,0,0,1.71-1.32c0.15,0.23.32,0.45,0.47,0.67,0.92,1.38,1.78,2.79,2.63,4.19a7.09,7.09,0,0,1-1.18,1.08L68.7,20.67h0Zm4.17,5.25A8.9,8.9,0,0,0,74,25c0.85,1.39,1.7,2.77,2.61,4.12L76,29.77c-1.06-1.27-2.08-2.56-3.11-3.84h0ZM79.52,34q-1.61-1.87-3.18-3.8L77,29.63a36.26,36.26,0,0,0,2.78,3.5c0.1,0.11.22,0.23,0.34,0.34a3.59,3.59,0,0,1-.57.54h0ZM80,34.53c0.22-.17.44-0.34,0.65-0.52,1.14,1,2.81,2.29,4,3.52l-1.1,1.11q-1.78-2-3.55-4.1h0Zm4.37,8.29a0.77,0.77,0,0,0,.21-1.42,0.61,0.61,0,0,0,.62-1c-0.43-.48-0.85-1-1.28-1.44L85,37.85a4.82,4.82,0,0,1,1.23,1.87c1.37,5.57-6.3,6.61-9.54,7.77-4.91,1.76-9.8,3.59-14.68,5.44C68.34,47.23,75.28,44.73,84.34,42.82ZM5.14,50C8.92,37.55,18.39,32.13,30.49,31.21l0.08,0.11c9,8.64,17.82,17.48,26.89,26C47.56,60,37.34,68.8,36.34,79.38L36.1,78.13a0.24,0.24,0,0,0-.44-0.06c-0.27.45-14-10.66-15.23-11.69q-3.9-3.23-7.73-6.55C11,58.38,4.46,54,4.6,51.61a0.72,0.72,0,0,0-.44-0.7A1.17,1.17,0,0,0,5.14,50Zm-1.8,4.55A11,11,0,0,0,5.26,57a0.59,0.59,0,0,0,0,.12,11,11,0,0,0,3,6.07C5.07,60.62,2.24,57.64,3.34,54.55Zm3.54,3.88C9.14,60.31,11.73,62,13,63c7.06,6.09,14.34,12.33,22.2,17.27a0.76,0.76,0,0,0,1.1-.81,1,1,0,0,0,1.87.4c2.49-4.71,4.13-9.18,7.91-13.15a35.27,35.27,0,0,1,9.26-6.87A54.34,54.34,0,0,0,48.27,68c-3.33,4.65-5.73,15.63-13.58,12.38C30,78.35,25.26,74,21.08,71c-5-3.53-11.44-6.89-14.19-12.58h0ZM89.47,43.66c-0.61,2.25-6.13,3.86-8.13,4.87-6,2.94-12.51,5.47-18.19,9.07h0a0.75,0.75,0,0,0-1.25.34c-0.09.59,0,1.15,0,1.74A4.06,4.06,0,0,1,61,61.55a7.46,7.46,0,0,1-1.36,1.28,4.8,4.8,0,0,1-.9.57,4.34,4.34,0,0,0-1,.34c0.08-.47-0.62-0.84-0.83-0.34a1.22,1.22,0,0,0,0,.94c-4.11,5.69-8,11.59-12.34,17.07-3.12,3.89-4.81,4.66-9.81,2.49a38.84,38.84,0,0,1-7.45-4.77c-4.73-3.54-9.06-7.57-13.45-11.5l1.65,1.08C22,73,28.94,79.42,36.17,82.32c3.22,1.29,5.21.52,7.1-2.3s3.08-6.43,5-9.41a71.63,71.63,0,0,1,10-11.83,0.51,0.51,0,0,0,.15-0.32l0.47-.21c0.63-.27.21-1.18-0.4-1.1l-0.31-.34h0c0.68-.77,1.36-1.48,2-2.17,8.16-2.63,16.16-5.24,24.16-8,2.2-.77,4.65-1.4,5.15-3.2A1.5,1.5,0,0,1,89.47,43.66Zm-64.25,21a1.16,1.16,0,0,0,1.56-.43c4-6.1,8.1-12,14.43-15.91a1.06,1.06,0,0,0,.22-1.66c-3.63-3.18-7.24-6.39-10.9-9.53-1.92-1.65-3-2.3-5.42-1.58-6.7,2-12.22,8.45-14.29,15a1,1,0,0,0-.48,1.58A158.21,158.21,0,0,0,25.23,64.64v0Zm-1.3-26.29c4.19-1.47,6.13,1,9,3.56l6,5.32C33.18,51,29.25,56.36,25.49,62c-4.76-3.55-9.3-7.34-13.75-11.28h0c2.65-5,6.68-10.47,12.18-12.39h0Z"/></svg>