<svg xmlns="http://www.w3.org/2000/svg" viewBox="0 0 72.14 61.37"><title>decor15</title><g id="c507f7f2-5717-40d3-b1d5-043542bcf918" data-name="Forma 1" style="isolation:isolate"><g id="222cc38e-8189-4863-a75a-610f3de835ea" data-name="Forma 1"><path d="M72.81,11.3a33.82,33.82,0,0,0-1.24-3.42l0.16-.12c0.38-.31-0.1-0.81-0.49-0.64a30.85,30.85,0,0,0-3.14-5.58,1.43,1.43,0,0,0-2.49.16,1.28,1.28,0,0,0-.64.12C52.72,7.57,40.44,13.22,28.32,19.24c-2.36,1.17-5.27,2-6.17,4.65-0.68,2,1,5.61,1.5,7.4q0.9,3.33,1.81,6.66c-4.33-3.83-8.79-8.21-13.66-10.82-4.72-2.53-6.1,1.3-10.54,2.63a0.77,0.77,0,0,0-.11,1.42,0.72,0.72,0,0,0,.24.64C12.31,42.55,24.48,52,36.13,61.91a1.26,1.26,0,0,0,2.07-.56,67.39,67.39,0,0,0,1.68-13.59c0-4.46-2.34-12.33.55-16.18,1.32-1.76,4.63-3.09,6.56-4.32q4.41-2.82,8.93-5.46c5.28-3.08,10.67-5.94,16.14-8.67a1.13,1.13,0,0,0,.67-1A1.1,1.1,0,0,0,72.81,11.3ZM52.33,20.82c-4.53,2.72-11.83,5.83-15,10.11-1.38,1.85-1.32,3.77-1,5.83-1.25.63-2.43,1.44-3.62,2.16a0.41,0.41,0,0,0,.41.72c1.11-.6,2.27-1.17,3.35-1.84,0.06,0.41.12,0.82,0.17,1.23,0.09,0.74.15,1.48,0.21,2.22-1.12.56-2.2,1.36-3.25,2a0.33,0.33,0,0,0,.33.57c1-.52,2-1,3-1.59,0.1,1.36.17,2.71,0.19,4.06a7.22,7.22,0,0,1-3,1.4,0.38,0.38,0,0,0,.09.75,7.22,7.22,0,0,0,2.9-.92c0,1.31,0,2.62-.11,3.92a0.31,0.31,0,0,0-.35,0A12.32,12.32,0,0,0,33.81,54a0.36,0.36,0,0,0,.51.51,13.48,13.48,0,0,0,2.62-2.59q-0.23,3.4-.79,6.79C25.07,49.54,14.42,39.79,3,31.07c3.84-.72,5.68-3.26,10.41.43Q20,36.68,26.68,41.83a1.09,1.09,0,0,0,1.8-1c-0.91-4.19-5-13.53-2.32-17.45,1.75-2.54,10.2-5.05,12.91-6.37,9-4.38,18-8.8,27.11-12.92,0.2,0.4.42,0.8,0.62,1.2C64,6.68,61.38,8.56,58.75,10.16a0.4,0.4,0,0,0,.4.69C61.82,9.38,64.77,8,67.38,6.36c0.37,0.71.72,1.43,1.11,2.13-3.12,1.67-6.18,3.66-9.14,5.47a0.29,0.29,0,0,0,.29.5,59,59,0,0,0,9.49-4.81c0.28,0.5.55,1,.84,1.51C64,14.17,58.07,17.36,52.33,20.82Z" transform="translate(-0.72 -0.88)" fill-rule="evenodd"/></g></g></svg>