<svg id="aa78d837-d900-4d59-bba4-2e78b7f985a9" data-name="Capa 1" xmlns="http://www.w3.org/2000/svg" viewBox="0 0 62.57 58.01"><title>decor5</title><path d="M54.06,13.43c-3.16-.19-6.33.19-8.29-3-1.13-1.81-1.59-3.93-2.55-5.82C41.91,2.05,39.92.2,36.9,0,28.8-.46,26,8.38,25.15,14.76a1,1,0,0,0,0,.45C13.9,13.44,6.71,25.22,2.48,34.33c-3.67,7.92-4.59,21.5,6.74,23.46,10.93,1.9,17.17-9.08,20.69-17.48,2.29-5.48,6.4-12.52,4.28-18.62a7.63,7.63,0,0,0-7.58-5.4,0.73,0.73,0,0,0,0-.13l0.35,0A0.3,0.3,0,0,0,27,15.59l-0.17,0a1,1,0,0,0,.13-0.3c1.09-4.62,2.28-11,7.61-12.54,6.15-1.77,6.84,5.35,9.1,9a10.09,10.09,0,0,0,4.59,4.26c3.52,1.36,7.06-1.17,10.11,1.81C70.07,29.2,34.65,37.42,46.76,49.11c0.81,0.78,2.33-.26,1.62-1.25-4.71-6.6,3.56-10.9,7.72-14.27a17.46,17.46,0,0,0,6-7.94C64,19.62,60.31,13.81,54.06,13.43ZM24.7,16.14a0.91,0.91,0,0,0-.08.13C22.9,20.5,21.3,24.92,20,29.3a68.15,68.15,0,0,1-9.48-4.6C14.07,20.08,18.7,16.42,24.7,16.14Zm5.18,19.42a65.39,65.39,0,0,0-13.09-.36,0.18,0.18,0,0,0,0,.36c4.33-.1,8.58.29,12.89,0.52-0.37.91-.74,1.81-1.11,2.64a29.2,29.2,0,0,0-10.82.2c-0.2,0-.11.33,0.08,0.3a38.31,38.31,0,0,1,10.49,0c-0.34.76-.67,1.49-1,2.14-2.24-.07-4.56.18-6.79,0.33a0.17,0.17,0,0,0,0,.33c2.16,0,4.4,0,6.57-.19l-0.91,1.88c-0.21.44-.45,0.88-0.69,1.33-2.91,0-5.83.14-8.72,0.37-0.21,0-.21.34,0,0.33,2.81-.13,5.61-0.13,8.41-0.16a31.25,31.25,0,0,1-1.8,2.77c-4,0-8.08.17-12.11,0.37a0.13,0.13,0,0,0,0,.27c3.91,0,7.84,0,11.75-.15a27.14,27.14,0,0,1-2.43,2.78c-4.42-.13-8.91.23-13.32,0.41a0.09,0.09,0,0,0,0,.17c4.25,0,8.59.14,12.85-.15a20.07,20.07,0,0,1-1.95,1.64c-3.68-.33-7.46-0.28-11.15-0.3a0.16,0.16,0,0,0,0,.31c3.52,0.19,7.1.42,10.64,0.34-3.44,2.3-7.45,3.1-11.49.44-8.59-5.64-3.06-17.66.7-24.33a48.28,48.28,0,0,1,2.8-4.41A60.23,60.23,0,0,0,30,34.73a1,1,0,0,0,.22,0C30.11,35,30,35.28,29.89,35.56Zm1-2.68a1,1,0,0,0-.33-0.16q-1.19-.31-2.36-0.64c1,0.07,1.93.13,2.89,0.17ZM30.28,19a20.59,20.59,0,0,0-3-.1,0.16,0.16,0,0,0,0,.32,25.63,25.63,0,0,1,3.62.34,5.41,5.41,0,0,1,1.23,2.12,22.74,22.74,0,0,0-4.59-.31,0.18,0.18,0,0,0,0,.36c1.59,0.09,3.17.38,4.75,0.52a10.23,10.23,0,0,1,.24,2.31c-1.9-.17-3.84-0.12-5.74-0.16a0.17,0.17,0,0,0,0,.34c1.9,0.11,3.83.32,5.74,0.3a19.91,19.91,0,0,1-.37,3c-2.43-.16-4.94,0-7.38.07a0.18,0.18,0,0,0,0,.36c2.4,0,4.87.22,7.27,0.07-0.21,1-.48,2-0.8,3a29.1,29.1,0,0,0-5.75-.4c-1.42-.45-2.82-0.93-4.2-1.45,1.79-3.88,3.42-7.94,4.88-12A7.08,7.08,0,0,1,30.28,19Z" /></svg>