<svg id="7833e815-e95f-4f7c-97e8-31c811ffd2fe" data-name="Слой 1" xmlns="http://www.w3.org/2000/svg" viewBox="0 0 52.59 64.4"><title>decor6</title><path d="M43.53,3.94C40.76,2.37,34.76-1.51,31.44.62c-2.88,1.88-.3,5.09,1.94,6.51a65.87,65.87,0,0,0-7.83,13,0.92,0.92,0,0,0,.09,1C14.71,17.79,3.08,23.21.49,35c-2.32,10.52,3.87,21.48,13,26.54S33.61,65.05,40,56.43c6.57-8.89,5.2-21.35-2.19-29.18a133.39,133.39,0,0,0,6.63-14.77c2.35,1,7.29,2.78,8.11-.38C53.44,8.52,45.51,5.06,43.53,3.94ZM49,10.75c-2-1.27-4.25-2.3-6.29-3.42a0.29,0.29,0,1,0-.29.51c2,1.24,4.1,2.71,6.25,3.81-0.06.12-.11,0.23-0.19,0.36a14.9,14.9,0,0,1-3.88-1.39,0.91,0.91,0,0,0-1.09.23c-1.3-.7-2.68-1.27-4-1.88-0.34-.15-0.64.34-0.3,0.51,1.34,0.67,2.67,1.39,4,2a0.73,0.73,0,0,0,0,.3c-0.46.71-.89,1.44-1.33,2.18A16.72,16.72,0,0,0,40,13a16.7,16.7,0,0,1-1.85-1.11c-0.37-.25-0.68.33-0.34,0.59a9.08,9.08,0,0,0,3.8,2q-0.79,1.38-1.53,2.81a36.72,36.72,0,0,0-3.8-2.12,0.25,0.25,0,0,0-.25.43,36.1,36.1,0,0,0,3.76,2.25c-0.48.94-1,1.89-1.39,2.85-0.45-.19-0.92-0.35-1.35-0.57A17.58,17.58,0,0,1,35.22,19a0.28,0.28,0,0,0-.34.44,9.81,9.81,0,0,0,3.24,1.89c-0.88,1.94-1.69,3.91-2.41,5.84-1-.5-1.93-1-2.84-1.47a0.25,0.25,0,1,0-.25.44,56.92,56.92,0,0,0,5.08,3.07,23.29,23.29,0,0,1,2.5,4.25C39.13,32.85,38,32.31,37,31.75a0.37,0.37,0,0,0-.36.63c1.34,0.82,2.73,1.8,4.18,2.52a23.66,23.66,0,0,1,1,3.42c-2.06-1.19-4.2-2.27-6.28-3.39a0.17,0.17,0,0,0-.17.3c2.19,1.36,4.37,2.79,6.63,4a22.81,22.81,0,0,1,.32,3c-0.77-.46-1.62-0.84-2.35-1.25a0.36,0.36,0,0,0-.34.59c0.86,0.52,1.77,1.2,2.72,1.66a21.56,21.56,0,0,1-.25,3,9.85,9.85,0,0,0-1.9-.6,0.34,0.34,0,1,0-.17.65,10.39,10.39,0,0,1,1.73.68l0.19,0.11a20.39,20.39,0,0,1-.68,2.55c-0.8-.5-1.67-0.91-2.49-1.36a0.33,0.33,0,0,0-.33.57c0.83,0.5,1.66,1.08,2.54,1.53a19.73,19.73,0,0,1-1.1,2.42,11.49,11.49,0,0,0-2.77-1.08,0.22,0.22,0,0,0-.16.39,12,12,0,0,0,2.67,1.21c-0.15.26-.29,0.53-0.46,0.79-0.29.44-.59,0.86-0.9,1.27a15.67,15.67,0,0,1-1.54-.58,6,6,0,0,1-1.62-1.21,0.26,0.26,0,1,0-.37.37,5.74,5.74,0,0,0,3.09,2,18.32,18.32,0,0,1-3,2.88c-0.46-.19-1-0.35-1.39-0.56a17.71,17.71,0,0,1-2-1.15c-0.26-.17-0.59.24-0.34,0.44a12.46,12.46,0,0,0,3,1.84,17.26,17.26,0,0,1-3.83,2,13.35,13.35,0,0,0-4.77-2,0.31,0.31,0,0,0-.15.59,43.2,43.2,0,0,1,4.06,1.59,17.89,17.89,0,0,1-4.83.78c-0.79-.5-1.68-0.86-2.5-1.29-1.21-.63-2.39-1.31-3.55-2a0.29,0.29,0,0,0-.29.49,41.69,41.69,0,0,0,4.16,2.74,20.66,20.66,0,0,1-8.54-2.81c-8-4.67-13.35-14.74-11.35-24C5,24,15.79,21,26.06,22.21a0.42,0.42,0,0,0,.35-0.68,0.88,0.88,0,0,0,.71-0.43A109.19,109.19,0,0,0,34.61,7.72,0.64,0.64,0,0,0,35,6.9v0a0.7,0.7,0,0,0-.27-0.67C34.22,2.91,35,1.78,37,2.86l2.33,1C41,4.62,42.48,5.5,44,6.37c1.22,0.7,3.2,1.44,4.08,2.55A1.5,1.5,0,0,1,49,10.75ZM11.33,27.3a0.39,0.39,0,0,0-.43.61L10.77,28c-8.38,7.26-6.46,23.07,2.84,28.63a16,16,0,0,0,14,1.18c5.92-2.35,8.7-7.69,10.56-13.49a0.71,0.71,0,0,0-.44-0.85A0.82,0.82,0,0,0,38,42.34l-0.06-.08c-3.26-3.54-8.24-5.5-12.41-7.76C20.92,32,16.28,29.17,11.33,27.3Zm25.8,16.14a0.58,0.58,0,0,0-.3.31C35,48,33.33,52.42,29.24,55a14,14,0,0,1-14.16.43c-9-5.08-10.25-19.08-3.61-26.69a0.52,0.52,0,0,0,.14-0.24c8,5.77,17.63,9,25.5,15ZM10.47,34a2.51,2.51,0,0,0,4.3,2.54c0.58-.89.62-2.53-0.41-3.13a0.42,0.42,0,0,0-.61.47,1.73,1.73,0,0,1-.14,1.72,1,1,0,0,1-1.28.3c-1.37-.66-0.43-2.51.9-2.32a0.39,0.39,0,1,0,.2-0.76A2.4,2.4,0,0,0,10.47,34ZM14,42.82c-0.53.92-1.64,2-2.7,1.11s-0.22-1.92.82-2c0.44,0,.75-0.72.25-0.94a2.07,2.07,0,0,0-2.55.76,2.49,2.49,0,0,0,.07,3,2.94,2.94,0,0,0,5.19-1.67A0.58,0.58,0,0,0,14,42.82h0Zm3.44-.28a2.68,2.68,0,0,0,3.21.08,2.43,2.43,0,0,0,.75-3.19,0.6,0.6,0,0,0-1.12.3c0,1.06-.86,2.29-2,1.53s-0.47-2.53.74-3a0.35,0.35,0,0,0-.08-0.64A2.76,2.76,0,0,0,17.45,42.54Zm15-19.47c1.21,0.58,2.41,1.22,3.67,1.68a0.28,0.28,0,0,0,.21-0.5,39.33,39.33,0,0,0-3.6-1.63C32.46,22.45,32.18,22.91,32.5,23.07Z"/></svg>