<svg id="4422156e-7651-4bf3-a80f-677cab983585" data-name="Layer 1" xmlns="http://www.w3.org/2000/svg" viewBox="0 0 496 495.61"><title>direct1</title><rect x="87.19" y="231.14" width="321.81" height="16"/><rect x="146.09" y="290.72" width="205.37" height="16"/><rect x="146.09" y="358.75" width="205.37" height="16"/><rect y="479.61" width="496" height="16"/><rect x="-239.81" y="239.81" width="495.61" height="16" transform="translate(-239.81 255.81) rotate(-90)"/><rect x="283.11" y="282.73" width="409.78" height="16" transform="translate(197.27 778.73) rotate(-90)"/><rect x="239.94" y="326.56" width="322.11" height="16" transform="translate(66.44 735.56) rotate(-90)"/><rect x="241.55" y="385.17" width="204.89" height="16" transform="translate(-49.17 737.17) rotate(-90)"/><rect x="51.55" y="385.17" width="204.89" height="16" transform="translate(-239.17 547.17) rotate(-90)"/><rect x="14.34" y="158.5" width="161.33" height="16" transform="translate(-71.5 261.5) rotate(-90)"/><rect x="212.08" y="34.92" width="85.84" height="16" transform="translate(212.08 297.92) rotate(-90)"/><rect x="145.55" y="385.17" width="204.89" height="16" transform="translate(-145.17 641.17) rotate(-90)"/><rect x="87.19" y="173.21" width="321.81" height="15.93"/><rect width="262.53" height="15.93"/><rect x="87.2" y="85.84" width="408.8" height="15.93"/></svg>