<svg id="508865f9-77cd-4fe4-b792-7b3e7a322b81" data-name="Layer 1" xmlns="http://www.w3.org/2000/svg" viewBox="0 0 495.58 496"><title>drect2</title><path d="M440,328.66V112a56.09,56.09,0,0,0-48.47-55.5,59.15,59.15,0,0,0-44.4-50A218.87,218.87,0,0,0,294,0h-7a222.18,222.18,0,0,0-31,2.19c-59.3,8.48-104,60-104,120V208h16V122.15c0-52,38.82-96.76,90.28-104.11A204.61,204.61,0,0,1,287,16h7a203.47,203.47,0,0,1,49.22,6.06A43.19,43.19,0,0,1,376,64v8h8a40,40,0,0,1,40,40V322.06c-3.08-1-6.22-1.86-9.44-2.58L352,305.58V285.82A95.85,95.85,0,0,0,392,208V104H376v4l-6.94,5.21A74.39,74.39,0,0,1,324.69,128H265.94A89.31,89.31,0,0,0,216,143.11V136H200v72a95.85,95.85,0,0,0,40,77.82v19.77l-48,10.66v16.4l20.42-4.54L192,382.55V388l104,78,105.59-79.19-22-58.7,31.51,7A87.46,87.46,0,0,1,480,421v59H416V448H400v32H192v16H496V421A103.29,103.29,0,0,0,440,328.66ZM265.94,144h58.75A90.47,90.47,0,0,0,376,127.83v34.41l-7.46,2.49A37.45,37.45,0,0,0,340,152c-13.26,0-24.75,6.48-31,16H283c-6.25-9.52-17.73-16-31-16a37.47,37.47,0,0,0-28.54,12.72L217,162.58A73.3,73.3,0,0,1,265.94,144ZM360,184c0,8.82-9,16-20,16s-20-7.18-20-16,9-16,20-16S360,175.18,360,184Zm-88,0c0,8.82-9,16-20,16s-20-7.18-20-16,9-16,20-16S272,175.18,272,184Zm-56,24V179.1l0.54,0.18A28.14,28.14,0,0,0,216,184c0,17.65,16.15,32,36,32s36-14.35,36-32h16c0,17.65,16.15,32,36,32s36-14.35,36-32a28.14,28.14,0,0,0-.54-4.73l0.54-.18V208A80,80,0,0,1,216,208Zm-6.41,173.21L231.06,324l11.41-2.54,4.35,14.52c8,26.52,17.06,45.75,26.7,66.1,4.85,10.24,9.86,20.83,15.13,33.11L292,443ZM296,412.3c-2.74-6-5.4-11.58-8-17.11-9.78-20.66-18.22-38.5-25.83-63.85L256,310.82V295.16a94.92,94.92,0,0,0,80,0v15.66l-6.16,20.52c-7.61,25.36-16.06,43.19-25.83,63.85C301.39,400.72,298.73,406.35,296,412.3Zm86.42-31.11L300,443l3.37-7.86c5.26-12.27,10.27-22.86,15.13-33.11,9.63-20.35,18.74-39.58,26.7-66.1l4.35-14.52L360.94,324Z" transform="translate(-0.42)"/><path d="M177.56,223V481H15.42V223H177.56m15-15H0.42V496H192.56V208h0Z" transform="translate(-0.42)"/><g id="8ade3039-171c-4c2f-af40-83a3eeb08354" data-name="&lt;Группа&gt;"><path id="4de891e1-eb65-494d-8fe6-a232ebe6a6f1" data-name="&lt;Контур&gt;" d="M78,283.81c-4.26,7.39-1.55,18.6,3.16,25.4,2.35,3.4,4.73,6.45,8,6.45h0.19a9.87,9.87,0,0,0,3.71-1,10.15,10.15,0,0,1,4.39-1,9.55,9.55,0,0,1,4.18,1,8.86,8.86,0,0,0,4,1c3.67-.07,5.93-3.36,7.91-6.27a27.77,27.77,0,0,0,3.47-7.1v0a0.41,0.41,0,0,0-.22-0.51h0a10.52,10.52,0,0,1-6.38-9.64,10.83,10.83,0,0,1,5.12-9.06l0,0a0.41,0.41,0,0,0,.12-0.58,11.91,11.91,0,0,0-9.37-5.09c-0.27,0-.54,0-0.82,0a16.33,16.33,0,0,0-5.88,1.47,9.45,9.45,0,0,1-2.82.84,9.22,9.22,0,0,1-2.91-.85,14.12,14.12,0,0,0-5.14-1.3H88.63A12.59,12.59,0,0,0,78,283.81Z" transform="translate(-0.42)"/><path id="cb2f5774-e4c5-4cf7-8abd-fd01a03ab012" data-name="&lt;Контур&gt;" d="M106.34,265.3a11.5,11.5,0,0,0-7.59,3.89,10.78,10.78,0,0,0-2.73,8,0.41,0.41,0,0,0,.38.36l0.53,0a9.73,9.73,0,0,0,7.17-3.68,11.36,11.36,0,0,0,2.67-8.22A0.42,0.42,0,0,0,106.34,265.3Z" transform="translate(-0.42)"/></g></svg>