<?xml version="1.0" encoding="iso-8859-1"?>
<!-- Generator: Adobe Illustrator 19.0.0, SVG Export Plug-In . SVG Version: 6.00 Build 0)  -->
<svg version="1.1" id="Capa_1" xmlns="http://www.w3.org/2000/svg" xmlns:xlink="http://www.w3.org/1999/xlink" x="0px" y="0px"
	 viewBox="0 0 480 480" style="enable-background:new 0 0 480 480;" xml:space="preserve">
<g>
	<g>
		<path d="M376,0c-57.344,0-104,46.656-104,104v48c0,4.416,3.576,8,8,8h24v64c0,4.416,3.576,8,8,8h80v48c0,4.416,3.576,8,8,8h72
			c4.424,0,8-3.584,8-8V104C480,46.656,433.344,0,376,0z M464,272h-56v-48c0-4.416-3.576-8-8-8h-80v-16.808
			c18.232-3.72,32-19.872,32-39.192h-16c0,10.416-6.712,19.216-16,22.528V152c0-4.416-3.576-8-8-8h-24v-40c0-48.52,39.48-88,88-88
			c48.52,0,88,39.48,88,88V272z"/>
	</g>
</g>
<g>
	<g>
		<path d="M253.656,146.344L224,116.688V40c0-22.056-17.944-40-40-40H40C17.944,0,0,17.944,0,40v80c0,22.056,17.944,40,40,40h208
			c3.232,0,6.16-1.952,7.392-4.936C256.632,152.072,255.944,148.632,253.656,146.344z M40,144c-13.232,0-24-10.768-24-24V40
			c0-13.232,10.768-24,24-24h144c13.232,0,24,10.768,24,24v80c0,2.12,0.84,4.16,2.344,5.656L228.688,144H40z"/>
	</g>
</g>
<g>
	<g>
		<path d="M416,304H272c-22.056,0-40,17.944-40,40v76.688l-29.656,29.656c-2.288,2.288-2.976,5.728-1.736,8.72
			c1.232,2.984,4.16,4.936,7.392,4.936h208c22.056,0,40-17.944,40-40v-80C456,321.944,438.056,304,416,304z M440,424
			c0,13.232-10.768,24-24,24H227.312l18.344-18.344C247.16,428.16,248,426.12,248,424v-80c0-13.232,10.768-24,24-24h144
			c13.232,0,24,10.768,24,24V424z"/>
	</g>
</g>
<g>
	<g>
		<rect x="72" y="72" width="16" height="16"/>
	</g>
</g>
<g>
	<g>
		<rect x="104" y="72" width="16" height="16"/>
	</g>
</g>
<g>
	<g>
		<rect x="136" y="72" width="16" height="16"/>
	</g>
</g>
<g>
	<g>
		<rect x="304" y="376" width="16" height="16"/>
	</g>
</g>
<g>
	<g>
		<rect x="336" y="376" width="16" height="16"/>
	</g>
</g>
<g>
	<g>
		<rect x="368" y="376" width="16" height="16"/>
	</g>
</g>
<g>
	<g>
		<path d="M104,192C46.656,192,0,238.656,0,296v176c0,4.416,3.576,8,8,8h72c4.424,0,8-3.584,8-8v-48h80c4.424,0,8-3.584,8-8v-24
			c0-4.416-3.576-8-8-8c-5.912,0-11.088-3.224-13.848-8H168c4.424,0,8-3.584,8-8v-16h24c4.424,0,8-3.584,8-8v-48
			C208,238.656,161.344,192,104,192z M192,336h-24c-4.424,0-8,3.584-8,8v16h-16c-4.424,0-8,3.584-8,8
			c0,14.88,10.208,27.424,24,30.992V408H80c-4.424,0-8,3.584-8,8v48H16V296c0-48.52,39.48-88,88-88s88,39.48,88,88V336z"/>
	</g>
</g>
<g>
	<g>
		<path d="M136,272c0,4.408-3.584,8-8,8s-8-3.592-8-8h-16c0,13.232,10.768,24,24,24s24-10.768,24-24H136z"/>
	</g>
</g>
<g>
	<g>
		<path d="M352,80c0,4.408-3.584,8-8,8c-4.416,0-8-3.592-8-8h-16c0,13.232,10.768,24,24,24s24-10.768,24-24H352z"/>
	</g>
</g>
<g>
</g>
<g>
</g>
<g>
</g>
<g>
</g>
<g>
</g>
<g>
</g>
<g>
</g>
<g>
</g>
<g>
</g>
<g>
</g>
<g>
</g>
<g>
</g>
<g>
</g>
<g>
</g>
<g>
</g>
</svg>
