<svg id="271a5f89-e890-41d1-ba53-216d84f86ab0" data-name="Layer 1" xmlns="http://www.w3.org/2000/svg" viewBox="0 0 496 496">
  <title>loading</title>
  <circle cx="472" cy="248" r="24" opacity=".01"/>
  <path d="M454.4,339.2c11.2,6.4,15.2,20.8,8.8,32.8-6.4,11.2-20.8,15.2-32.8,8.8-11.2-6.4-15.2-20.8-8.8-32.8C428,336.8,442.4,332.8,454.4,339.2Z" opacity=".10"/>
  <path d="M380.8,430.4c6.4,11.2,2.4,25.6-8.8,32.8-11.2,6.4-25.6,2.4-32.8-8.8-6.4-11.2-2.4-25.6,8.8-32.8C359.2,415.2,374.4,419.2,380.8,430.4Z" opacity=".19"/>
  <circle cx="248" cy="472" r="24" opacity=".28"/>
  <path d="M115.2,430.4c6.4-11.2,20.8-15.2,32.8-8.8,11.2,6.4,15.2,20.8,8.8,32.8-6.4,11.2-20.8,15.2-32.8,8.8C112.8,456,108.8,441.6,115.2,430.4Z" opacity=".37"/>
  <path d="M41.6,339.2c11.2-6.4,25.6-2.4,32.8,8.8,6.4,11.2,2.4,25.6-8.8,32.8-11.2,6.4-25.6,2.4-32.8-8.8S30.4,346.4,41.6,339.2Z" opacity=".46"/>
  <circle cx="24" cy="248" r="24" opacity=".55"/>
  <path d="M65.6,115.2c11.2,6.4,15.2,20.8,8.8,32.8-6.4,11.2-20.8,15.2-32.8,8.8C30.4,150.4,26.4,136,32.8,124S54.4,108.8,65.6,115.2Z" opacity=".64"/>
  <circle cx="136" cy="53.6" r="24" opacity=".73"/>
  <circle cx="248" cy="24" r="24" opacity=".82"/>
  <path d="M339.2,41.6c6.4-11.2,20.8-15.2,32.8-8.8,11.2,6.4,15.2,20.8,8.8,32.8C374.4,76.8,360,80.8,348,74.4,336.8,68,332.8,53.6,339.2,41.6Z" opacity=".91"/>
  <path d="M430.4,117.2c11.2-6.4,25.6-2.4,32.8,8.8,6.4,11.2,2.4,25.6-8.8,32.8-11.2,6.4-25.6,2.4-32.8-8.8C415.2,138.8,419.2,123.6,430.4,117.2Z"/>
</svg>
