<svg id="8004ef86-f8bd-4fc3-847b-7a7dbda68068" data-name="A" xmlns="http://www.w3.org/2000/svg" viewBox="0 0 39.31 40.58">
  <title>logo-footer</title>
  <path d="M8.43,8.58V9H0.12V8.58l4.05-8H4.67ZM6,7.34L4.38,3.91,2.63,7.34H6Z" transform="translate(-0.12 -0.61)"/>
  <path d="M23.25,9L18.52,4.12V9H16.84V0.61h0.53L22,5.32V0.61h1.68V9H23.25Z" transform="translate(-0.12 -0.61)"/>
  <path d="M39.43,8.58V9H31.12V8.58l4.05-8h0.49ZM37,7.34L35.38,3.91,33.63,7.34H37Z" transform="translate(-0.12 -0.61)"/>
  <path d="M39.43,24.58V25H31.12V24.58l4.05-8h0.49ZM37,23.34l-1.61-3.43-1.75,3.43H37Z" transform="translate(-0.12 -0.61)"/>
  <path d="M23.44,16.62v1.68H21.11V25H19.43V18.29H17.09V16.62h6.34Z" transform="translate(-0.12 -0.61)"/>
  <path d="M4.14,21.46a4,4,0,0,1-1.27-.53A2.31,2.31,0,0,1,1.79,19a2.25,2.25,0,0,1,.61-1.71,2.91,2.91,0,0,1,2-.83,4.17,4.17,0,0,1,2.52.84l0.28,0.18L6.28,18.94,6,18.75a2.58,2.58,0,0,0-1.62-.58,1.28,1.28,0,0,0-.74.31,0.59,0.59,0,0,0-.14.48c0,0.43.31,0.67,1.08,0.86L4.79,19.9A4.45,4.45,0,0,1,6.65,21a2.43,2.43,0,0,1,.66,1.64,2.61,2.61,0,0,1-2.6,2.53A5,5,0,0,1,3.23,25a4.64,4.64,0,0,1-2-1.27l1.22-1.15a2.9,2.9,0,0,0,2.25.95,0.92,0.92,0,0,0,.92-0.85c0-.46-0.52-0.88-1.39-1.18H4.14Z" transform="translate(-0.12 -0.61)"/>
  <path d="M4.14,37.46a4,4,0,0,1-1.27-.53A2.31,2.31,0,0,1,1.79,35a2.25,2.25,0,0,1,.61-1.72,2.92,2.92,0,0,1,2-.83,4.17,4.17,0,0,1,2.52.84l0.28,0.18L6.28,34.94,6,34.75a2.58,2.58,0,0,0-1.62-.58,1.28,1.28,0,0,0-.74.31,0.59,0.59,0,0,0-.14.48c0,0.43.31,0.67,1.08,0.86L4.79,35.9A4.44,4.44,0,0,1,6.65,37a2.43,2.43,0,0,1,.66,1.64,2.61,2.61,0,0,1-2.6,2.53A5,5,0,0,1,3.23,41a4.64,4.64,0,0,1-2-1.27l1.22-1.15a2.9,2.9,0,0,0,2.25.95,0.92,0.92,0,0,0,.92-0.85c0-.46-0.52-0.88-1.39-1.18H4.14Z" transform="translate(-0.12 -0.61)"/>
  <path d="M21.11,34.29v5H22V41H18.53V39.34h0.9v-5h-0.9V32.62H22v1.68H21.11Z" transform="translate(-0.12 -0.61)"/>
  <path d="M39.43,40.58V41H31.12V40.58l4.05-8h0.49ZM37,39.34l-1.61-3.43-1.75,3.43H37Z" transform="translate(-0.12 -0.61)"/>
</svg>
