<svg id="5ca145c3-3c02-41a8-be38-ff8d821a416e" data-name="Layer 1" xmlns="http://www.w3.org/2000/svg" viewBox="0 0 370.8 76.5"><title>logo</title><path d="M38.25,0A38.25,38.25,0,1,0,76.5,38.25,38.25,38.25,0,0,0,38.25,0Zm0,60.35a22.1,22.1,0,1,1,22.1-22.1A22.1,22.1,0,0,1,38.25,60.35Z" fill="#6ba841"/><circle cx="81.6" cy="69.96" r="6.54" fill="#edbf31"/><path d="M92.91,51.86a18,18,0,0,1-5.54-13.27,18.91,18.91,0,0,1,19-18.86,18.38,18.38,0,0,1,13.45,5.54,18.12,18.12,0,0,1,5.56,13.32,18,18,0,0,1-5.56,13.27A19.21,19.21,0,0,1,92.91,51.86Zm3.71-13.27a10,10,0,0,0,2.82,7.13,9.56,9.56,0,0,0,13.82,0,9.9,9.9,0,0,0,2.85-7.13,10.05,10.05,0,0,0-2.85-7.21,9.5,9.5,0,0,0-13.82,0A10.1,10.1,0,0,0,96.62,38.59Z" /><path d="M130.06,38.54a18.48,18.48,0,0,1,5.3-13.3,18,18,0,0,1,13.56-5.51,21.69,21.69,0,0,1,5.07.63,13.44,13.44,0,0,1,4.75,2.17,4.47,4.47,0,0,1,2.14,3.68,4,4,0,0,1-1.31,3.11,4.46,4.46,0,0,1-3.08,1.18,4.31,4.31,0,0,1-2.35-.63A9.8,9.8,0,0,0,149,28.35a9,9,0,0,0-7,3,10.37,10.37,0,0,0-2.69,7.21A10.35,10.35,0,0,0,142,45.77a9.06,9.06,0,0,0,7,3,9.86,9.86,0,0,0,5.69-1.88,4.23,4.23,0,0,1,2.56-.89,4.42,4.42,0,0,1,3.13,1.23,4.15,4.15,0,0,1,1.31,3.16,4.77,4.77,0,0,1-2.19,3.81,14.28,14.28,0,0,1-5,2.43,21.12,21.12,0,0,1-5.49.76,18.14,18.14,0,0,1-13.69-5.49A18.5,18.5,0,0,1,130.06,38.54Z" /><path d="M172,20.25H184q5.59,0,8.75,3.06a10,10,0,0,1,3.16,7.44,11,11,0,0,1-.55,3.55,6.62,6.62,0,0,1-1.12,2.25l-0.58.63a11.48,11.48,0,0,1,.94.78,9.17,9.17,0,0,1,1.52,2.51,10.13,10.13,0,0,1,.94,4.39,11.14,11.14,0,0,1-3.71,8.54,13.62,13.62,0,0,1-9.61,3.42H172a4.65,4.65,0,0,1-4.49-4.49V24.8a4.42,4.42,0,0,1,1.31-3.21A4.29,4.29,0,0,1,172,20.25Zm11.75,8.41h-7v5.8h7a3.2,3.2,0,0,0,2.33-.84,2.85,2.85,0,0,0,.86-2.14,2.65,2.65,0,0,0-.86-2A3.26,3.26,0,0,0,183.72,28.66Zm0.26,13h-7.26v6.84H184a4.29,4.29,0,0,0,3-1,3.26,3.26,0,0,0,1.12-2.56,2.93,2.93,0,0,0-1.1-2.4A4.6,4.6,0,0,0,184,41.62Z" /><path d="M203.36,24.27a4.36,4.36,0,0,1,1.36-3.19A4.42,4.42,0,0,1,208,19.73a4.48,4.48,0,0,1,3.29,1.36,4.37,4.37,0,0,1,1.36,3.19V52.8A4.36,4.36,0,0,1,211.25,56,4.48,4.48,0,0,1,208,57.35,4.42,4.42,0,0,1,204.72,56a4.36,4.36,0,0,1-1.36-3.19V24.27Z" /><path d="M243.48,20.25a4.64,4.64,0,0,1,3.26,1.18A4.08,4.08,0,0,1,248,24.59a4.06,4.06,0,0,1-1.31,3.13,4.6,4.6,0,0,1-3.24,1.2h-6.22V52.75A4.42,4.42,0,0,1,235.91,56a4.48,4.48,0,0,1-3.29,1.36,4.64,4.64,0,0,1-4.6-4.6V28.92H222a4.79,4.79,0,0,1-3.29-1.2,4,4,0,0,1-1.36-3.13,4,4,0,0,1,1.36-3.13,4.79,4.79,0,0,1,3.29-1.2h21.53Z" /><path d="M253.57,51.86A18,18,0,0,1,248,38.59a18.91,18.91,0,0,1,19-18.86,18.38,18.38,0,0,1,13.45,5.54A18.12,18.12,0,0,1,286,38.59a18,18,0,0,1-5.56,13.27A19.21,19.21,0,0,1,253.57,51.86Zm3.71-13.27a10,10,0,0,0,2.82,7.13,9.56,9.56,0,0,0,13.82,0,9.9,9.9,0,0,0,2.85-7.13,10.05,10.05,0,0,0-2.85-7.21,9.5,9.5,0,0,0-13.82,0A10.1,10.1,0,0,0,257.27,38.59Z" /><path d="M292.28,52.75v-28a4.31,4.31,0,0,1,4.6-4.49h10.24A13.34,13.34,0,0,1,316.86,24a12.36,12.36,0,0,1,3.79,9.19,12.28,12.28,0,0,1-3.81,9.12A13.31,13.31,0,0,1,307.12,46h-5.59v6.74A4.47,4.47,0,0,1,300.19,56a4.4,4.4,0,0,1-3.27,1.36A4.48,4.48,0,0,1,293.64,56,4.42,4.42,0,0,1,292.28,52.75Zm9.25-23.88v8.52h5.38a4.69,4.69,0,0,0,3.34-1.23,4.2,4.2,0,0,0,0-6.09,4.75,4.75,0,0,0-3.34-1.2h-5.38Z" /><path d="M325.87,24.27a4.36,4.36,0,0,1,1.36-3.19,4.42,4.42,0,0,1,3.24-1.36,4.48,4.48,0,0,1,3.29,1.36,4.37,4.37,0,0,1,1.36,3.19V52.8A4.36,4.36,0,0,1,333.76,56a4.48,4.48,0,0,1-3.29,1.36A4.42,4.42,0,0,1,327.23,56a4.36,4.36,0,0,1-1.36-3.19V24.27Z" /><path d="M355,20.25h11.23a4.31,4.31,0,0,1,4.6,4.49v28A4.46,4.46,0,0,1,369.47,56a4.67,4.67,0,0,1-6.56,0,4.49,4.49,0,0,1-1.31-3.27V45.33H357.9l-7.52,10.19a4.59,4.59,0,0,1-7,.42,4.52,4.52,0,0,1-1.33-3.19A4.35,4.35,0,0,1,342.9,50l5-6.48a11.7,11.7,0,0,1-6-10.4A12.36,12.36,0,0,1,345.73,24,12.68,12.68,0,0,1,355,20.25Zm6.63,16.51V28.87h-6.53a3.93,3.93,0,0,0-4,4,3.77,3.77,0,0,0,1.15,2.77,3.83,3.83,0,0,0,2.82,1.15h6.53Z" /></svg>