<svg id="db55ede7-6ccf-45ad-a38e-5e92b3454b37" data-name="Слой 1" xmlns="http://www.w3.org/2000/svg" viewBox="0 0 68.1 91.67"><title>pin3</title><path d="M35.92,0.57A32.17,32.17,0,0,0,10.63,52.64l25.29,39,25.29-39A32.17,32.17,0,0,0,35.92.57Z" fill="#dfcfa7"/><path d="M32.18,0A32.17,32.17,0,0,0,6.89,52.07l25.29,39,25.29-39A32.17,32.17,0,0,0,32.18,0Z" fill="#fff"/><path d="M15,48.31a2.5,2.5,0,0,1,0-3.64,2.79,2.79,0,0,1,3.82,0,2.49,2.49,0,0,1,0,3.64A2.81,2.81,0,0,1,15,48.31Zm0.53-1.82a1.39,1.39,0,0,0,2.77,0,1.39,1.39,0,0,0-1.39-1.39,1.32,1.32,0,0,0-1,.41A1.36,1.36,0,0,0,15.48,46.49Z" fill="#737379"/><path d="M20.24,46.48A2.48,2.48,0,0,1,21,44.66a2.61,2.61,0,0,1,1.93-.75,3.2,3.2,0,0,1,.72.09,2,2,0,0,1,.68.3,0.61,0.61,0,0,1,.3.5,0.54,0.54,0,0,1-.19.43,0.65,0.65,0,0,1-.44.16,0.63,0.63,0,0,1-.33-0.09,1.43,1.43,0,0,0-.73-0.21,1.31,1.31,0,0,0-1,.41,1.47,1.47,0,0,0,0,2,1.31,1.31,0,0,0,1,.4,1.44,1.44,0,0,0,.81-0.26,0.62,0.62,0,0,1,.36-0.12,0.64,0.64,0,0,1,.45.17,0.56,0.56,0,0,1,.19.43,0.65,0.65,0,0,1-.31.52,2.06,2.06,0,0,1-.71.33,3.12,3.12,0,0,1-.78.1A2.63,2.63,0,0,1,21,48.31,2.48,2.48,0,0,1,20.24,46.48Z" fill="#737379"/><path d="M26.2,44h1.72a1.76,1.76,0,0,1,1.25.42,1.34,1.34,0,0,1,.45,1,1.45,1.45,0,0,1-.08.49,0.89,0.89,0,0,1-.16.31l-0.08.09,0.13,0.11a1.25,1.25,0,0,1,.22.34,1.34,1.34,0,0,1,.13.6,1.5,1.5,0,0,1-.53,1.17,2,2,0,0,1-1.37.47H26.2a0.62,0.62,0,0,1-.45-0.19,0.58,0.58,0,0,1-.19-0.43V44.6a0.59,0.59,0,0,1,.19-0.44A0.62,0.62,0,0,1,26.2,44Zm1.67,1.15h-1v0.79h1a0.47,0.47,0,0,0,.33-0.11,0.38,0.38,0,0,0,.12-0.29,0.36,0.36,0,0,0-.12-0.28A0.48,0.48,0,0,0,27.87,45.13Zm0,1.77h-1v0.94h1a0.63,0.63,0,0,0,.42-0.14,0.44,0.44,0,0,0,.16-0.35A0.4,0.4,0,0,0,28.33,47,0.67,0.67,0,0,0,27.91,46.9Z" fill="#737379"/><path d="M30.67,44.53a0.59,0.59,0,0,1,.19-0.44,0.64,0.64,0,0,1,.46-0.19,0.65,0.65,0,0,1,.47.19,0.59,0.59,0,0,1,.19.44v3.91a0.59,0.59,0,0,1-.19.44,0.65,0.65,0,0,1-.47.19,0.64,0.64,0,0,1-.46-0.19,0.59,0.59,0,0,1-.19-0.44V44.53Z" fill="#737379"/><path d="M36.38,44a0.68,0.68,0,0,1,.46.16,0.6,0.6,0,0,1,0,.86,0.67,0.67,0,0,1-.46.16H35.49v3.26a0.59,0.59,0,0,1-.19.44,0.65,0.65,0,0,1-.47.19,0.64,0.64,0,0,1-.46-0.19,0.59,0.59,0,0,1-.19-0.44V45.17H33.31A0.7,0.7,0,0,1,32.85,45a0.57,0.57,0,0,1,0-.86A0.7,0.7,0,0,1,33.31,44h3.06Z" fill="#737379"/><path d="M37.81,48.31a2.5,2.5,0,0,1,0-3.64,2.79,2.79,0,0,1,3.82,0,2.49,2.49,0,0,1,0,3.64A2.81,2.81,0,0,1,37.81,48.31Zm0.53-1.82a1.39,1.39,0,0,0,2.77,0,1.39,1.39,0,0,0-1.39-1.39,1.32,1.32,0,0,0-1,.41A1.36,1.36,0,0,0,38.34,46.49Z" fill="#737379"/><path d="M43.32,48.43V44.59a0.6,0.6,0,0,1,.17-0.44A0.65,0.65,0,0,1,44,44h1.46a1.94,1.94,0,0,1,1.39.51,1.72,1.72,0,0,1,0,2.51,1.94,1.94,0,0,1-1.38.51h-0.8v0.92a0.6,0.6,0,0,1-.19.44,0.64,0.64,0,0,1-.46.19,0.65,0.65,0,0,1-.47-0.19A0.59,0.59,0,0,1,43.32,48.43Zm1.32-3.27v1.17H45.4a0.68,0.68,0,0,0,.48-0.17,0.56,0.56,0,0,0,0-.83,0.69,0.69,0,0,0-.48-0.16H44.64Z" fill="#737379"/><path d="M48.1,44.53a0.59,0.59,0,0,1,.19-0.44,0.64,0.64,0,0,1,.46-0.19,0.65,0.65,0,0,1,.47.19,0.59,0.59,0,0,1,.19.44v3.91a0.59,0.59,0,0,1-.19.44,0.65,0.65,0,0,1-.47.19,0.64,0.64,0,0,1-.46-0.19,0.59,0.59,0,0,1-.19-0.44V44.53Z" fill="#737379"/><path d="M52.24,44h1.6a0.65,0.65,0,0,1,.48.18,0.6,0.6,0,0,1,.17.44v3.83a0.6,0.6,0,0,1-.19.44,0.68,0.68,0,0,1-.93,0,0.6,0.6,0,0,1-.19-0.45v-1H52.66l-1.07,1.39a0.62,0.62,0,0,1-.53.25,0.63,0.63,0,0,1-.46-0.19,0.61,0.61,0,0,1-.19-0.44,0.58,0.58,0,0,1,.12-0.37l0.71-.89a1.59,1.59,0,0,1-.85-1.42,1.66,1.66,0,0,1,.54-1.25A1.84,1.84,0,0,1,52.24,44Zm0.94,2.26V45.16H52.26a0.56,0.56,0,0,0-.4.16,0.52,0.52,0,0,0-.16.39,0.51,0.51,0,0,0,.16.38,0.56,0.56,0,0,0,.4.16h0.93Z" fill="#737379"/><path d="M31.25,13.11A14,14,0,0,0,17,26.82,14,14,0,0,0,31.25,40.54,14,14,0,0,0,45.5,26.82,14,14,0,0,0,31.25,13.11Zm0,21.64A8.09,8.09,0,0,1,23,26.82a8.24,8.24,0,0,1,16.47,0A8.09,8.09,0,0,1,31.25,34.75Z" fill="#73aa5e"/><ellipse cx="48.78" cy="37.82" rx="2.82" ry="2.72" fill="#e6c347"/></svg>