<?xml version="1.0" encoding="iso-8859-1"?>
<!-- Generator: Adobe Illustrator 19.0.0, SVG Export Plug-In . SVG Version: 6.00 Build 0)  -->
<svg version="1.1" id="Layer_1" xmlns="http://www.w3.org/2000/svg" xmlns:xlink="http://www.w3.org/1999/xlink" x="0px" y="0px"
	 viewBox="0 0 512 512" style="enable-background:new 0 0 512 512;" xml:space="preserve">
<g>
	<g>
		<path d="M469.244,213.244C469.244,95.661,373.584,0,256,0S42.756,95.661,42.756,213.244c0,106.128,77.933,194.385,179.574,210.577
			v22.283l-72.192,14.439c-7.717,1.542-13.32,8.375-13.32,16.246v18.643c0,9.136,7.432,16.568,16.568,16.568h205.228
			c9.136,0,16.568-7.432,16.568-16.568v-18.644c0-7.87-5.602-14.703-13.318-16.246l-72.193-14.439v-22.283
			C391.311,407.629,469.244,319.373,469.244,213.244z M358.72,476.265c0.248,0.05,0.429,0.27,0.429,0.524v18.644
			c0,0.295-0.239,0.534-0.534,0.534H153.386c-0.295,0-0.534-0.239-0.534-0.534v-18.644c0-0.253,0.181-0.474,0.43-0.524
			l77.859-15.572h49.72L358.72,476.265z M238.363,444.66v-18.906c5.818,0.479,11.698,0.734,17.637,0.734s11.819-0.257,17.637-0.734
			v18.906H238.363z M256,410.455c-108.743,0-197.211-88.468-197.211-197.211S147.257,16.033,256,16.033
			s197.211,88.468,197.211,197.211S364.743,410.455,256,410.455z"/>
	</g>
</g>
<g>
	<g>
		<path d="M256,119.716c-51.572,0-93.528,41.956-93.528,93.528s41.956,93.528,93.528,93.528s93.528-41.956,93.528-93.528
			S307.572,119.716,256,119.716z M256,290.739c-42.731,0-77.495-34.764-77.495-77.495s34.764-77.495,77.495-77.495
			s77.495,34.764,77.495,77.495S298.731,290.739,256,290.739z"/>
	</g>
</g>
<g>
	<g>
		<path d="M256,153.921c-32.711,0-59.324,26.612-59.324,59.324s26.612,59.324,59.324,59.324s59.324-26.612,59.324-59.324
			S288.711,153.921,256,153.921z M256,256.534c-23.871,0-43.29-19.42-43.29-43.29s19.42-43.29,43.29-43.29s43.29,19.42,43.29,43.29
			S279.871,256.534,256,256.534z"/>
	</g>
</g>
<g>
	<g>
		<path d="M256,42.756c-13.851,0-25.119,11.268-25.119,25.119S242.149,92.994,256,92.994s25.119-11.268,25.119-25.119
			S269.851,42.756,256,42.756z M256,76.96c-5.01,0-9.086-4.076-9.086-9.086s4.076-9.086,9.086-9.086s9.086,4.076,9.086,9.086
			C265.086,72.885,261.01,76.96,256,76.96z"/>
	</g>
</g>
<g>
	<g>
		<path d="M256,188.125c-4.427,0-8.017,3.589-8.017,8.017s3.589,8.017,8.017,8.017c5.01,0,9.086,4.076,9.086,9.086
			c0,4.427,3.589,8.017,8.017,8.017s8.017-3.589,8.017-8.017C281.119,199.394,269.851,188.125,256,188.125z"/>
	</g>
</g>
<g>
</g>
<g>
</g>
<g>
</g>
<g>
</g>
<g>
</g>
<g>
</g>
<g>
</g>
<g>
</g>
<g>
</g>
<g>
</g>
<g>
</g>
<g>
</g>
<g>
</g>
<g>
</g>
<g>
</g>
</svg>
