<svg id="faf47b73-6bfe-4ed6-9e04-356f21759409" data-name="Layer 1" xmlns="http://www.w3.org/2000/svg" viewBox="0 0 310 218.17"><title>youtube</title><g id="78cd5564-6a82-4c51-a29a-f84c6218d1ec" data-name="&lt;Группа&gt;"><path id="ae887134-023b-4638-b480-0d2880b8beee" data-name="&lt;Составной контур&gt;" d="M297.92,18.73C286.73,5.43,266.07,0,226.61,0H83.39C43,0,22,5.78,10.87,19.94,0,33.75,0,54.09,0,82.25v53.67c0,54.55,12.9,82.25,83.39,82.25H226.61c34.22,0,53.18-4.79,65.44-16.53,12.58-12,17.95-31.69,17.95-65.72V82.25C310,52.55,309.16,32.09,297.92,18.73ZM199,116.49l-65,34a10,10,0,0,1-14.63-8.86V73.86A10,10,0,0,1,134,65l65,33.77A10,10,0,0,1,199,116.49Z"/></g></svg>